<svg width="340" height="37" viewBox="0 0 340 37" fill="none" xmlns="http://www.w3.org/2000/svg">
<path d="M0 6.00001C0 3.23858 2.23858 1 5 1H335C337.761 1 340 3.23858 340 6V31.9944C340 34.7559 337.761 36.9944 335 36.9944H5C2.23858 36.9944 0 34.7559 0 31.9944V6.00001Z" fill="black" fill-opacity="0.45"/>
<path d="M133.1 29L131.036 23.696H124.244L122.204 29H120.02L126.716 11.792H128.66L135.332 29H133.1ZM128.468 16.592C128.42 16.464 128.34 16.232 128.228 15.896C128.116 15.56 128.004 15.216 127.892 14.864C127.796 14.496 127.716 14.216 127.652 14.024C127.572 14.344 127.484 14.672 127.388 15.008C127.308 15.328 127.22 15.624 127.124 15.896C127.044 16.168 126.972 16.4 126.908 16.592L124.964 21.776H130.388L128.468 16.592ZM127.052 6.344C127.228 6.696 127.444 7.096 127.7 7.544C127.972 7.976 128.252 8.4 128.54 8.816C128.844 9.232 129.116 9.592 129.356 9.896V10.184H127.94C127.668 9.96 127.364 9.696 127.028 9.392C126.692 9.072 126.356 8.744 126.02 8.408C125.7 8.056 125.404 7.72 125.132 7.4C124.876 7.08 124.676 6.808 124.532 6.584V6.344H127.052ZM150.383 29H142.625C142.562 29 142.531 28.9609 142.531 28.8828L142.555 12.418C142.555 12.3398 142.594 12.3008 142.672 12.3008H145.344C145.422 12.3008 145.461 12.3398 145.461 12.418L145.438 26.0469H150.383C150.461 26.0469 150.5 26.0859 150.5 26.1641V28.8828C150.5 28.9609 150.461 29 150.383 29ZM151.262 28.8828L154.238 12.3945C154.254 12.332 154.293 12.3008 154.355 12.3008H157.836C157.898 12.3008 157.938 12.332 157.953 12.3945L160.812 28.8828C160.82 28.9609 160.789 29 160.719 29H158.059C157.98 29 157.938 28.9609 157.93 28.8828L157.672 27.125H154.402L154.145 28.8828C154.137 28.9609 154.098 29 154.027 29H151.355C151.293 29 151.262 28.9609 151.262 28.8828ZM155.961 17.8203L154.883 24.5586H157.191L156.207 17.8203L156.066 16.9297L155.961 17.8203ZM172.965 29.2344C172.098 29.2344 171.305 29.0156 170.586 28.5781C169.875 28.1406 169.309 27.5547 168.887 26.8203C168.473 26.0781 168.266 25.2539 168.266 24.3477L168.289 16.8594C168.289 15.9688 168.492 15.1641 168.898 14.4453C169.305 13.7188 169.863 13.1367 170.574 12.6992C171.293 12.2539 172.09 12.0312 172.965 12.0312C173.855 12.0312 174.648 12.2461 175.344 12.6758C176.047 13.1055 176.605 13.6875 177.02 14.4219C177.441 15.1484 177.652 15.9609 177.652 16.8594V17.9609C177.652 18.0234 177.621 18.0547 177.559 18.0547H174.863C174.801 18.0547 174.77 18.0234 174.77 17.9609V16.8594C174.77 16.3281 174.598 15.8711 174.254 15.4883C173.91 15.1055 173.48 14.9141 172.965 14.9141C172.395 14.9141 171.957 15.1094 171.652 15.5C171.348 15.8906 171.195 16.3438 171.195 16.8594V24.3477C171.195 24.9336 171.367 25.4141 171.711 25.7891C172.055 26.1562 172.473 26.3398 172.965 26.3398C173.48 26.3398 173.91 26.1367 174.254 25.7305C174.598 25.3164 174.77 24.8555 174.77 24.3477V23.2344C174.77 23.1719 174.801 23.1406 174.863 23.1406H177.582C177.645 23.1406 177.676 23.1719 177.676 23.2344V24.3477C177.676 25.2461 177.465 26.0664 177.043 26.8086C176.613 27.543 176.047 28.1328 175.344 28.5781C174.641 29.0156 173.848 29.2344 172.965 29.2344ZM178.613 28.8828L181.59 12.3945C181.605 12.332 181.645 12.3008 181.707 12.3008H185.188C185.25 12.3008 185.289 12.332 185.305 12.3945L188.164 28.8828C188.172 28.9609 188.141 29 188.07 29H185.41C185.332 29 185.289 28.9609 185.281 28.8828L185.023 27.125H181.754L181.496 28.8828C181.488 28.9609 181.449 29 181.379 29H178.707C178.645 29 178.613 28.9609 178.613 28.8828ZM183.312 17.8203L182.234 24.5586H184.543L183.559 17.8203L183.418 16.9297L183.312 17.8203ZM192.477 29H189.758C189.695 29 189.664 28.9609 189.664 28.8828L189.711 12.3945C189.711 12.332 189.742 12.3008 189.805 12.3008H194.656C195.523 12.3008 196.32 12.5117 197.047 12.9336C197.773 13.3555 198.352 13.9219 198.781 14.6328C199.219 15.3438 199.438 16.1484 199.438 17.0469C199.438 17.6328 199.348 18.1641 199.168 18.6406C198.988 19.1172 198.777 19.5195 198.535 19.8477C198.301 20.1758 198.086 20.418 197.891 20.5742C198.758 21.5352 199.191 22.6641 199.191 23.9609L199.215 28.8828C199.215 28.9609 199.176 29 199.098 29H196.379C196.316 29 196.285 28.9766 196.285 28.9297V23.9609C196.285 23.3828 196.082 22.8828 195.676 22.4609C195.27 22.0391 194.77 21.8281 194.176 21.8281H192.594L192.57 28.8828C192.57 28.9609 192.539 29 192.477 29ZM194.656 15.1719H192.594V18.9453H194.656C195.148 18.9453 195.586 18.7617 195.969 18.3945C196.359 18.0273 196.555 17.5781 196.555 17.0469C196.555 16.5391 196.367 16.1016 195.992 15.7344C195.617 15.3594 195.172 15.1719 194.656 15.1719ZM206.363 29H203.656C203.586 29 203.551 28.9609 203.551 28.8828V15.1953H200.434C200.355 15.1953 200.316 15.1562 200.316 15.0781L200.34 12.3945C200.34 12.332 200.371 12.3008 200.434 12.3008H209.551C209.637 12.3008 209.68 12.332 209.68 12.3945V15.0781C209.68 15.1562 209.648 15.1953 209.586 15.1953H206.434L206.457 28.8828C206.457 28.9609 206.426 29 206.363 29ZM218.703 29H210.945C210.883 29 210.852 28.9609 210.852 28.8828L210.875 12.3945C210.875 12.332 210.906 12.3008 210.969 12.3008H218.68C218.742 12.3008 218.773 12.3398 218.773 12.418V15.1016C218.773 15.1641 218.742 15.1953 218.68 15.1953H213.758V18.9453H218.68C218.742 18.9453 218.773 18.9766 218.773 19.0391L218.797 21.7578C218.797 21.8203 218.766 21.8516 218.703 21.8516H213.758V26.0469H218.703C218.766 26.0469 218.797 26.0859 218.797 26.1641V28.9062C218.797 28.9688 218.766 29 218.703 29Z" fill="white"/>
</svg>
