<svg width="340" height="36" viewBox="0 0 340 36" fill="none" xmlns="http://www.w3.org/2000/svg">
<path d="M0 5.00001C0 2.23858 2.23858 0 5 0H335C337.761 0 340 2.23858 340 5V30.9944C340 33.7559 337.761 35.9944 335 35.9944H5C2.23858 35.9944 0 33.7559 0 30.9944V5.00001Z" fill="black" fill-opacity="0.45"/>
<path d="M122.867 28.8828L125.844 12.3945C125.859 12.332 125.898 12.3008 125.961 12.3008H129.441C129.504 12.3008 129.543 12.332 129.559 12.3945L132.418 28.8828C132.426 28.9609 132.395 29 132.324 29H129.664C129.586 29 129.543 28.9609 129.535 28.8828L129.277 27.125H126.008L125.75 28.8828C125.742 28.9609 125.703 29 125.633 29H122.961C122.898 29 122.867 28.9609 122.867 28.8828ZM127.566 17.8203L126.488 24.5586H128.797L127.812 17.8203L127.672 16.9297L127.566 17.8203ZM136.73 29H134.035C133.957 29 133.918 28.9609 133.918 28.8828L133.965 12.3945C133.965 12.332 133.996 12.3008 134.059 12.3008H138.676C140.145 12.3008 141.305 12.75 142.156 13.6484C143.016 14.5391 143.445 15.7539 143.445 17.293C143.445 18.418 143.223 19.3984 142.777 20.2344C142.324 21.0625 141.738 21.7031 141.02 22.1562C140.301 22.6094 139.52 22.8359 138.676 22.8359H136.848V28.8828C136.848 28.9609 136.809 29 136.73 29ZM138.676 15.1484L136.848 15.1719V19.9297H138.676C139.184 19.9297 139.625 19.6875 140 19.2031C140.375 18.7109 140.562 18.0742 140.562 17.293C140.562 16.668 140.395 16.1562 140.059 15.7578C139.723 15.3516 139.262 15.1484 138.676 15.1484ZM152.926 29H145.168C145.105 29 145.074 28.9609 145.074 28.8828L145.098 12.3945C145.098 12.332 145.129 12.3008 145.191 12.3008H152.902C152.965 12.3008 152.996 12.3398 152.996 12.418V15.1016C152.996 15.1641 152.965 15.1953 152.902 15.1953H147.98V18.9453H152.902C152.965 18.9453 152.996 18.9766 152.996 19.0391L153.02 21.7578C153.02 21.8203 152.988 21.8516 152.926 21.8516H147.98V26.0469H152.926C152.988 26.0469 153.02 26.0859 153.02 26.1641V28.9062C153.02 28.9688 152.988 29 152.926 29ZM157.965 29H155.246C155.184 29 155.152 28.9609 155.152 28.8828L155.199 12.3945C155.199 12.332 155.23 12.3008 155.293 12.3008H160.145C161.012 12.3008 161.809 12.5117 162.535 12.9336C163.262 13.3555 163.84 13.9219 164.27 14.6328C164.707 15.3438 164.926 16.1484 164.926 17.0469C164.926 17.6328 164.836 18.1641 164.656 18.6406C164.477 19.1172 164.266 19.5195 164.023 19.8477C163.789 20.1758 163.574 20.418 163.379 20.5742C164.246 21.5352 164.68 22.6641 164.68 23.9609L164.703 28.8828C164.703 28.9609 164.664 29 164.586 29H161.867C161.805 29 161.773 28.9766 161.773 28.9297V23.9609C161.773 23.3828 161.57 22.8828 161.164 22.4609C160.758 22.0391 160.258 21.8281 159.664 21.8281H158.082L158.059 28.8828C158.059 28.9609 158.027 29 157.965 29ZM160.145 15.1719H158.082V18.9453H160.145C160.637 18.9453 161.074 18.7617 161.457 18.3945C161.848 18.0273 162.043 17.5781 162.043 17.0469C162.043 16.5391 161.855 16.1016 161.48 15.7344C161.105 15.3594 160.66 15.1719 160.145 15.1719ZM169.566 29H166.848C166.77 29 166.73 28.9609 166.73 28.8828L166.754 12.3945C166.754 12.332 166.785 12.3008 166.848 12.3008H169.543C169.605 12.3008 169.637 12.332 169.637 12.3945L169.66 28.8828C169.66 28.9609 169.629 29 169.566 29ZM176.891 29H174.184C174.113 29 174.078 28.9609 174.078 28.8828V15.1953H170.961C170.883 15.1953 170.844 15.1562 170.844 15.0781L170.867 12.3945C170.867 12.332 170.898 12.3008 170.961 12.3008H180.078C180.164 12.3008 180.207 12.332 180.207 12.3945V15.0781C180.207 15.1562 180.176 15.1953 180.113 15.1953H176.961L176.984 28.8828C176.984 28.9609 176.953 29 176.891 29ZM184.215 29H181.496C181.418 29 181.379 28.9609 181.379 28.8828L181.402 12.3945C181.402 12.332 181.434 12.3008 181.496 12.3008H184.191C184.254 12.3008 184.285 12.332 184.285 12.3945L184.309 28.8828C184.309 28.9609 184.277 29 184.215 29ZM192.02 29H189.113C189.043 29 189.004 28.9609 188.996 28.8828L185.68 12.3945C185.664 12.332 185.695 12.3008 185.773 12.3008H188.492C188.555 12.3008 188.594 12.332 188.609 12.3945L190.578 23.3867L192.5 12.3945C192.516 12.332 192.555 12.3008 192.617 12.3008H195.301C195.387 12.3008 195.418 12.332 195.395 12.3945L192.137 28.8828C192.129 28.9609 192.09 29 192.02 29ZM201.242 29.2344C200.391 29.2344 199.605 29.0156 198.887 28.5781C198.176 28.1406 197.602 27.5586 197.164 26.832C196.734 26.0977 196.52 25.293 196.52 24.418L196.543 16.8125C196.543 15.9219 196.758 15.1211 197.188 14.4102C197.609 13.6914 198.18 13.1172 198.898 12.6875C199.617 12.25 200.398 12.0312 201.242 12.0312C202.117 12.0312 202.902 12.2461 203.598 12.6758C204.301 13.1055 204.863 13.6836 205.285 14.4102C205.715 15.1289 205.93 15.9297 205.93 16.8125L205.953 24.418C205.953 25.293 205.742 26.0938 205.32 26.8203C204.891 27.5547 204.32 28.1406 203.609 28.5781C202.898 29.0156 202.109 29.2344 201.242 29.2344ZM201.242 26.3398C201.727 26.3398 202.148 26.1445 202.508 25.7539C202.867 25.3555 203.047 24.9102 203.047 24.418L203.023 16.8125C203.023 16.2812 202.855 15.832 202.52 15.4648C202.184 15.0977 201.758 14.9141 201.242 14.9141C200.75 14.9141 200.328 15.0938 199.977 15.4531C199.625 15.8125 199.449 16.2656 199.449 16.8125V24.418C199.449 24.9414 199.625 25.3945 199.977 25.7773C200.328 26.1523 200.75 26.3398 201.242 26.3398ZM211.848 29.2344C210.996 29.2344 210.211 29.0156 209.492 28.5781C208.781 28.1406 208.211 27.5586 207.781 26.832C207.359 26.0977 207.148 25.293 207.148 24.418V23.3164C207.148 23.2305 207.188 23.1875 207.266 23.1875H209.961C210.023 23.1875 210.055 23.2305 210.055 23.3164V24.418C210.055 24.9414 210.23 25.3945 210.582 25.7773C210.934 26.1523 211.355 26.3398 211.848 26.3398C212.348 26.3398 212.773 26.1484 213.125 25.7656C213.477 25.375 213.652 24.9258 213.652 24.418C213.652 23.832 213.27 23.3203 212.504 22.8828C212.379 22.8047 212.215 22.7109 212.012 22.6016C211.816 22.4844 211.582 22.3516 211.309 22.2031C211.035 22.0547 210.77 21.9102 210.512 21.7695C210.254 21.6211 210.004 21.4805 209.762 21.3477C208.887 20.832 208.234 20.1875 207.805 19.4141C207.383 18.6328 207.172 17.7578 207.172 16.7891C207.172 15.8984 207.391 15.0938 207.828 14.375C208.266 13.6641 208.836 13.1016 209.539 12.6875C210.25 12.2656 211.02 12.0547 211.848 12.0547C212.699 12.0547 213.48 12.2656 214.191 12.6875C214.902 13.1172 215.469 13.6875 215.891 14.3984C216.32 15.1094 216.535 15.9062 216.535 16.7891V18.7578C216.535 18.8203 216.504 18.8516 216.441 18.8516H213.746C213.684 18.8516 213.652 18.8203 213.652 18.7578L213.629 16.7891C213.629 16.2266 213.453 15.7695 213.102 15.418C212.75 15.0664 212.332 14.8906 211.848 14.8906C211.355 14.8906 210.934 15.0781 210.582 15.4531C210.23 15.8281 210.055 16.2734 210.055 16.7891C210.055 17.3125 210.164 17.75 210.383 18.1016C210.609 18.4531 211.02 18.7891 211.613 19.1094C211.676 19.1406 211.82 19.2188 212.047 19.3438C212.273 19.4688 212.523 19.6094 212.797 19.7656C213.078 19.9141 213.332 20.0508 213.559 20.1758C213.785 20.293 213.922 20.3633 213.969 20.3867C214.766 20.832 215.395 21.3789 215.855 22.0273C216.324 22.6758 216.559 23.4727 216.559 24.418C216.559 25.332 216.348 26.1523 215.926 26.8789C215.496 27.6055 214.926 28.1797 214.215 28.6016C213.504 29.0234 212.715 29.2344 211.848 29.2344Z" fill="white"/>
</svg>
