<svg width="2400" height="558" viewBox="0 0 2400 558" fill="none" xmlns="http://www.w3.org/2000/svg">
<g filter="url(#filter0_b_191_2)">
<path d="M693 0H1698V558H693V0Z" fill="black" fill-opacity="0.5"/>
</g>
<path d="M1103.76 454.391C1102.34 454.391 1101.03 454.026 1099.83 453.297C1098.65 452.568 1097.7 451.598 1096.98 450.387C1096.28 449.163 1095.93 447.822 1095.93 446.363V444.527C1095.93 444.384 1095.99 444.312 1096.12 444.312H1100.61C1100.72 444.312 1100.77 444.384 1100.77 444.527V446.363C1100.77 447.236 1101.06 447.991 1101.65 448.629C1102.23 449.254 1102.94 449.566 1103.76 449.566C1104.59 449.566 1105.3 449.247 1105.89 448.609C1106.47 447.958 1106.77 447.21 1106.77 446.363C1106.77 445.387 1106.13 444.534 1104.85 443.805C1104.64 443.674 1104.37 443.518 1104.03 443.336C1103.71 443.141 1103.31 442.919 1102.86 442.672C1102.4 442.424 1101.96 442.184 1101.53 441.949C1101.1 441.702 1100.68 441.467 1100.28 441.246C1098.82 440.387 1097.74 439.312 1097.02 438.023C1096.32 436.721 1095.96 435.263 1095.96 433.648C1095.96 432.164 1096.33 430.823 1097.06 429.625C1097.79 428.44 1098.74 427.503 1099.91 426.812C1101.09 426.109 1102.38 425.758 1103.76 425.758C1105.18 425.758 1106.48 426.109 1107.66 426.812C1108.85 427.529 1109.79 428.479 1110.5 429.664C1111.21 430.849 1111.57 432.177 1111.57 433.648V436.93C1111.57 437.034 1111.52 437.086 1111.41 437.086H1106.92C1106.82 437.086 1106.77 437.034 1106.77 436.93L1106.73 433.648C1106.73 432.711 1106.43 431.949 1105.85 431.363C1105.26 430.777 1104.56 430.484 1103.76 430.484C1102.94 430.484 1102.23 430.797 1101.65 431.422C1101.06 432.047 1100.77 432.789 1100.77 433.648C1100.77 434.521 1100.95 435.25 1101.32 435.836C1101.69 436.422 1102.38 436.982 1103.37 437.516C1103.47 437.568 1103.71 437.698 1104.09 437.906C1104.47 438.115 1104.88 438.349 1105.34 438.609C1105.81 438.857 1106.23 439.085 1106.61 439.293C1106.99 439.488 1107.21 439.605 1107.29 439.645C1108.62 440.387 1109.67 441.298 1110.44 442.379C1111.22 443.46 1111.61 444.788 1111.61 446.363C1111.61 447.887 1111.26 449.254 1110.55 450.465C1109.84 451.676 1108.89 452.633 1107.7 453.336C1106.52 454.039 1105.2 454.391 1103.76 454.391ZM1113.03 453.805L1118 426.324C1118.02 426.22 1118.09 426.168 1118.19 426.168H1123.99C1124.1 426.168 1124.16 426.22 1124.19 426.324L1128.95 453.805C1128.97 453.935 1128.91 454 1128.8 454H1124.36C1124.23 454 1124.16 453.935 1124.15 453.805L1123.72 450.875H1118.27L1117.84 453.805C1117.83 453.935 1117.76 454 1117.64 454H1113.19C1113.09 454 1113.03 453.935 1113.03 453.805ZM1120.87 435.367L1119.07 446.598H1122.92L1121.28 435.367L1121.04 433.883L1120.87 435.367ZM1136.18 454H1131.65C1131.52 454 1131.45 453.935 1131.45 453.805L1131.49 426.324C1131.49 426.22 1131.54 426.168 1131.65 426.168H1136.14C1136.24 426.168 1136.3 426.22 1136.3 426.324L1136.34 453.805C1136.34 453.935 1136.28 454 1136.18 454ZM1147.18 454H1140.01C1139.9 454 1139.85 453.935 1139.85 453.805L1139.93 426.324C1139.93 426.22 1139.98 426.168 1140.09 426.168H1147.78C1149.28 426.168 1150.64 426.533 1151.86 427.262C1153.06 427.991 1154 428.961 1154.69 430.172C1155.38 431.37 1155.73 432.672 1155.73 434.078C1155.73 435.224 1155.47 436.292 1154.95 437.281C1154.43 438.271 1153.81 439.072 1153.09 439.684C1153.86 440.452 1154.46 441.344 1154.89 442.359C1155.32 443.375 1155.53 444.443 1155.53 445.562C1155.53 447.112 1155.16 448.525 1154.42 449.801C1153.67 451.077 1152.66 452.099 1151.39 452.867C1150.13 453.622 1148.72 454 1147.18 454ZM1147.78 430.914H1144.73V437.203H1147.78C1148.71 437.203 1149.45 436.878 1150.03 436.227C1150.6 435.562 1150.89 434.846 1150.89 434.078C1150.89 433.232 1150.58 432.496 1149.97 431.871C1149.36 431.233 1148.63 430.914 1147.78 430.914ZM1147.18 442.047H1144.73L1144.69 449.117H1147.18C1148.14 449.117 1148.97 448.766 1149.66 448.062C1150.35 447.359 1150.69 446.526 1150.69 445.562C1150.69 444.599 1150.35 443.772 1149.66 443.082C1148.97 442.392 1148.14 442.047 1147.18 442.047ZM1157.06 453.805L1162.02 426.324C1162.05 426.22 1162.11 426.168 1162.21 426.168H1168.02C1168.12 426.168 1168.18 426.22 1168.21 426.324L1172.98 453.805C1172.99 453.935 1172.94 454 1172.82 454H1168.39C1168.26 454 1168.18 453.935 1168.17 453.805L1167.74 450.875H1162.29L1161.86 453.805C1161.85 453.935 1161.78 454 1161.67 454H1157.21C1157.11 454 1157.06 453.935 1157.06 453.805ZM1164.89 435.367L1163.09 446.598H1166.94L1165.3 435.367L1165.07 433.883L1164.89 435.367ZM1190.55 454H1186.02C1185.92 454 1185.87 453.935 1185.87 453.805L1185.94 426.324C1185.94 426.22 1186 426.168 1186.1 426.168H1190.98C1191.09 426.168 1191.18 426.22 1191.26 426.324L1194.91 431.598L1198.54 426.324C1198.62 426.22 1198.72 426.168 1198.84 426.168H1203.74C1203.85 426.168 1203.91 426.22 1203.91 426.324L1203.99 453.805C1203.99 453.935 1203.94 454 1203.84 454H1199.3C1199.2 454 1199.15 453.935 1199.15 453.805L1199.11 433.395L1194.91 439.488L1190.75 433.395L1190.71 453.805C1190.71 453.935 1190.66 454 1190.55 454ZM1206 453.805L1210.96 426.324C1210.99 426.22 1211.06 426.168 1211.16 426.168H1216.96C1217.06 426.168 1217.13 426.22 1217.16 426.324L1221.92 453.805C1221.93 453.935 1221.88 454 1221.77 454H1217.33C1217.2 454 1217.13 453.935 1217.12 453.805L1216.69 450.875H1211.24L1210.81 453.805C1210.8 453.935 1210.73 454 1210.61 454H1206.16C1206.06 454 1206 453.935 1206 453.805ZM1213.84 435.367L1212.04 446.598H1215.89L1214.25 435.367L1214.01 433.883L1213.84 435.367ZM1229.15 454H1224.62C1224.49 454 1224.42 453.935 1224.42 453.805L1224.46 426.324C1224.46 426.22 1224.51 426.168 1224.62 426.168H1229.11C1229.21 426.168 1229.27 426.22 1229.27 426.324L1229.3 453.805C1229.3 453.935 1229.25 454 1229.15 454ZM1239.62 454.391C1238.2 454.391 1236.89 454.026 1235.69 453.297C1234.51 452.568 1233.56 451.598 1232.84 450.387C1232.14 449.163 1231.78 447.822 1231.78 446.363V444.527C1231.78 444.384 1231.85 444.312 1231.98 444.312H1236.47C1236.58 444.312 1236.63 444.384 1236.63 444.527V446.363C1236.63 447.236 1236.92 447.991 1237.51 448.629C1238.09 449.254 1238.8 449.566 1239.62 449.566C1240.45 449.566 1241.16 449.247 1241.75 448.609C1242.33 447.958 1242.62 447.21 1242.62 446.363C1242.62 445.387 1241.99 444.534 1240.71 443.805C1240.5 443.674 1240.23 443.518 1239.89 443.336C1239.56 443.141 1239.17 442.919 1238.72 442.672C1238.26 442.424 1237.82 442.184 1237.39 441.949C1236.96 441.702 1236.54 441.467 1236.14 441.246C1234.68 440.387 1233.59 439.312 1232.88 438.023C1232.18 436.721 1231.82 435.263 1231.82 433.648C1231.82 432.164 1232.19 430.823 1232.92 429.625C1233.65 428.44 1234.6 427.503 1235.77 426.812C1236.95 426.109 1238.24 425.758 1239.62 425.758C1241.04 425.758 1242.34 426.109 1243.52 426.812C1244.71 427.529 1245.65 428.479 1246.35 429.664C1247.07 430.849 1247.43 432.177 1247.43 433.648V436.93C1247.43 437.034 1247.38 437.086 1247.27 437.086H1242.78C1242.68 437.086 1242.62 437.034 1242.62 436.93L1242.59 433.648C1242.59 432.711 1242.29 431.949 1241.71 431.363C1241.12 430.777 1240.42 430.484 1239.62 430.484C1238.8 430.484 1238.09 430.797 1237.51 431.422C1236.92 432.047 1236.63 432.789 1236.63 433.648C1236.63 434.521 1236.81 435.25 1237.18 435.836C1237.55 436.422 1238.24 436.982 1239.23 437.516C1239.33 437.568 1239.57 437.698 1239.95 437.906C1240.33 438.115 1240.74 438.349 1241.2 438.609C1241.67 438.857 1242.09 439.085 1242.47 439.293C1242.85 439.488 1243.07 439.605 1243.15 439.645C1244.48 440.387 1245.53 441.298 1246.3 442.379C1247.08 443.46 1247.47 444.788 1247.47 446.363C1247.47 447.887 1247.12 449.254 1246.41 450.465C1245.7 451.676 1244.75 452.633 1243.56 453.336C1242.38 454.039 1241.06 454.391 1239.62 454.391Z" fill="white"/>
<path d="M1013.66 138.141L1007.05 131.438C1004.71 132.438 1002.3 132.938 999.831 132.938C996.424 132.938 993.299 132.078 990.456 130.359C987.581 128.641 985.268 126.312 983.518 123.375C981.799 120.406 980.94 117.172 980.94 113.672L981.034 83.25C981.034 79.8438 981.878 76.6875 983.565 73.7812C985.221 70.875 987.471 68.5469 990.315 66.7969C993.159 65.0156 996.331 64.125 999.831 64.125C1003.24 64.125 1006.36 64.9688 1009.21 66.6562C1012.05 68.375 1014.32 70.6719 1016 73.5469C1017.72 76.4219 1018.58 79.6562 1018.58 83.25L1018.67 113.672C1018.67 115.516 1018.41 117.312 1017.88 119.062C1017.38 120.781 1016.71 122.375 1015.86 123.844L1021.82 129.891C1022.13 130.141 1022.16 130.359 1021.91 130.547L1014.36 138.141C1014.14 138.328 1013.91 138.328 1013.66 138.141ZM999.831 121.359C1002.02 121.359 1003.77 120.547 1005.08 118.922C1006.39 117.266 1007.05 115.516 1007.05 113.672L1006.96 83.25C1006.96 81.1875 1006.28 79.4062 1004.94 77.9062C1003.6 76.4062 1001.89 75.6562 999.831 75.6562C997.674 75.6562 995.94 76.4219 994.628 77.9531C993.315 79.4844 992.659 81.25 992.659 83.25V113.672C992.659 115.984 993.409 117.844 994.909 119.25C996.409 120.656 998.049 121.359 999.831 121.359ZM1044.46 132.938C1041.08 132.938 1037.96 132.062 1035.08 130.312C1032.21 128.562 1029.91 126.219 1028.19 123.281C1026.5 120.312 1025.66 117.078 1025.66 113.578L1025.85 65.5781C1025.85 65.3281 1025.97 65.2031 1026.22 65.2031H1037C1037.25 65.2031 1037.38 65.3281 1037.38 65.5781V113.578C1037.38 115.734 1038.07 117.578 1039.44 119.109C1040.82 120.609 1042.49 121.359 1044.46 121.359C1046.52 121.359 1048.24 120.609 1049.61 119.109C1050.99 117.578 1051.67 115.734 1051.67 113.578V65.5781C1051.67 65.3281 1051.8 65.2031 1052.05 65.2031H1062.83C1063.08 65.2031 1063.21 65.3281 1063.21 65.5781L1063.39 113.578C1063.39 117.109 1062.55 120.359 1060.86 123.328C1059.14 126.266 1056.86 128.609 1054.02 130.359C1051.17 132.078 1047.99 132.938 1044.46 132.938ZM1102.35 132H1071.32C1071.07 132 1070.94 131.844 1070.94 131.531L1071.03 65.5781C1071.03 65.3281 1071.16 65.2031 1071.41 65.2031H1102.25C1102.5 65.2031 1102.63 65.3594 1102.63 65.6719V76.4062C1102.63 76.6562 1102.5 76.7812 1102.25 76.7812H1082.57V91.7812H1102.25C1102.5 91.7812 1102.63 91.9062 1102.63 92.1562L1102.72 103.031C1102.72 103.281 1102.6 103.406 1102.35 103.406H1082.57V120.188H1102.35C1102.6 120.188 1102.72 120.344 1102.72 120.656V131.625C1102.72 131.875 1102.6 132 1102.35 132ZM1122.5 132H1111.63C1111.38 132 1111.25 131.844 1111.25 131.531L1111.44 65.5781C1111.44 65.3281 1111.57 65.2031 1111.82 65.2031H1123.53C1123.78 65.2031 1124 65.3281 1124.19 65.5781L1132.96 78.2344L1141.67 65.5781C1141.86 65.3281 1142.1 65.2031 1142.38 65.2031H1154.14C1154.42 65.2031 1154.57 65.3281 1154.57 65.5781L1154.75 131.531C1154.75 131.844 1154.63 132 1154.38 132H1143.5C1143.25 132 1143.13 131.844 1143.13 131.531L1143.03 82.5469L1132.96 97.1719L1122.97 82.5469L1122.88 131.531C1122.88 131.844 1122.75 132 1122.5 132ZM1204.07 132.938C1200.66 132.938 1197.52 132.062 1194.64 130.312C1191.8 128.562 1189.52 126.234 1187.8 123.328C1186.11 120.391 1185.27 117.172 1185.27 113.672V109.266C1185.27 108.922 1185.42 108.75 1185.74 108.75H1196.52C1196.77 108.75 1196.89 108.922 1196.89 109.266V113.672C1196.89 115.766 1197.6 117.578 1199 119.109C1200.41 120.609 1202.1 121.359 1204.07 121.359C1206.07 121.359 1207.77 120.594 1209.17 119.062C1210.58 117.5 1211.28 115.703 1211.28 113.672C1211.28 111.328 1209.75 109.281 1206.69 107.531C1206.19 107.219 1205.53 106.844 1204.72 106.406C1203.94 105.938 1203 105.406 1201.91 104.812C1200.82 104.219 1199.75 103.641 1198.72 103.078C1197.69 102.484 1196.69 101.922 1195.72 101.391C1192.22 99.3281 1189.61 96.75 1187.89 93.6562C1186.21 90.5312 1185.36 87.0312 1185.36 83.1562C1185.36 79.5938 1186.24 76.375 1187.99 73.5C1189.74 70.6562 1192.02 68.4062 1194.83 66.75C1197.67 65.0625 1200.75 64.2188 1204.07 64.2188C1207.47 64.2188 1210.6 65.0625 1213.44 66.75C1216.28 68.4688 1218.55 70.75 1220.24 73.5938C1221.96 76.4375 1222.82 79.625 1222.82 83.1562V91.0312C1222.82 91.2812 1222.69 91.4062 1222.44 91.4062H1211.66C1211.41 91.4062 1211.28 91.2812 1211.28 91.0312L1211.19 83.1562C1211.19 80.9062 1210.49 79.0781 1209.08 77.6719C1207.67 76.2656 1206 75.5625 1204.07 75.5625C1202.1 75.5625 1200.41 76.3125 1199 77.8125C1197.6 79.3125 1196.89 81.0938 1196.89 83.1562C1196.89 85.25 1197.33 87 1198.21 88.4062C1199.11 89.8125 1200.75 91.1562 1203.13 92.4375C1203.38 92.5625 1203.96 92.875 1204.86 93.375C1205.77 93.875 1206.77 94.4375 1207.86 95.0625C1208.99 95.6562 1210 96.2031 1210.91 96.7031C1211.82 97.1719 1212.36 97.4531 1212.55 97.5469C1215.74 99.3281 1218.25 101.516 1220.1 104.109C1221.97 106.703 1222.91 109.891 1222.91 113.672C1222.91 117.328 1222.07 120.609 1220.38 123.516C1218.66 126.422 1216.38 128.719 1213.53 130.406C1210.69 132.094 1207.53 132.938 1204.07 132.938ZM1247.33 132.938C1243.92 132.938 1240.78 132.062 1237.91 130.312C1235.07 128.562 1232.77 126.234 1231.02 123.328C1229.3 120.391 1228.44 117.172 1228.44 113.672L1228.53 83.25C1228.53 79.6875 1229.39 76.4844 1231.11 73.6406C1232.8 70.7656 1235.08 68.4688 1237.96 66.75C1240.83 65 1243.96 64.125 1247.33 64.125C1250.83 64.125 1253.97 64.9844 1256.75 66.7031C1259.57 68.4219 1261.82 70.7344 1263.5 73.6406C1265.22 76.5156 1266.08 79.7188 1266.08 83.25L1266.17 113.672C1266.17 117.172 1265.33 120.375 1263.64 123.281C1261.92 126.219 1259.64 128.562 1256.8 130.312C1253.96 132.062 1250.8 132.938 1247.33 132.938ZM1247.33 121.359C1249.27 121.359 1250.96 120.578 1252.39 119.016C1253.83 117.422 1254.55 115.641 1254.55 113.672L1254.46 83.25C1254.46 81.125 1253.78 79.3281 1252.44 77.8594C1251.1 76.3906 1249.39 75.6562 1247.33 75.6562C1245.36 75.6562 1243.67 76.375 1242.27 77.8125C1240.86 79.25 1240.16 81.0625 1240.16 83.25V113.672C1240.16 115.766 1240.86 117.578 1242.27 119.109C1243.67 120.609 1245.36 121.359 1247.33 121.359ZM1284.69 132H1273.82C1273.57 132 1273.44 131.844 1273.44 131.531L1273.63 65.5781C1273.63 65.3281 1273.75 65.2031 1274 65.2031H1285.72C1285.97 65.2031 1286.19 65.3281 1286.38 65.5781L1295.14 78.2344L1303.86 65.5781C1304.05 65.3281 1304.28 65.2031 1304.57 65.2031H1316.33C1316.61 65.2031 1316.75 65.3281 1316.75 65.5781L1316.94 131.531C1316.94 131.844 1316.82 132 1316.57 132H1305.69C1305.44 132 1305.32 131.844 1305.32 131.531L1305.22 82.5469L1295.14 97.1719L1285.16 82.5469L1285.07 131.531C1285.07 131.844 1284.94 132 1284.69 132ZM1342.77 132.938C1339.36 132.938 1336.22 132.062 1333.35 130.312C1330.5 128.562 1328.21 126.234 1326.46 123.328C1324.74 120.391 1323.88 117.172 1323.88 113.672L1323.97 83.25C1323.97 79.6875 1324.83 76.4844 1326.55 73.6406C1328.24 70.7656 1330.52 68.4688 1333.39 66.75C1336.27 65 1339.39 64.125 1342.77 64.125C1346.27 64.125 1349.41 64.9844 1352.19 66.7031C1355 68.4219 1357.25 70.7344 1358.94 73.6406C1360.66 76.5156 1361.52 79.7188 1361.52 83.25L1361.61 113.672C1361.61 117.172 1360.77 120.375 1359.08 123.281C1357.36 126.219 1355.08 128.562 1352.24 130.312C1349.39 132.062 1346.24 132.938 1342.77 132.938ZM1342.77 121.359C1344.71 121.359 1346.39 120.578 1347.83 119.016C1349.27 117.422 1349.99 115.641 1349.99 113.672L1349.89 83.25C1349.89 81.125 1349.22 79.3281 1347.88 77.8594C1346.53 76.3906 1344.83 75.6562 1342.77 75.6562C1340.8 75.6562 1339.11 76.375 1337.71 77.8125C1336.3 79.25 1335.6 81.0625 1335.6 83.25V113.672C1335.6 115.766 1336.3 117.578 1337.71 119.109C1339.11 120.609 1340.8 121.359 1342.77 121.359ZM1385.19 132.938C1381.78 132.938 1378.64 132.062 1375.77 130.312C1372.92 128.562 1370.64 126.234 1368.92 123.328C1367.24 120.391 1366.39 117.172 1366.39 113.672V109.266C1366.39 108.922 1366.55 108.75 1366.86 108.75H1377.64C1377.89 108.75 1378.02 108.922 1378.02 109.266V113.672C1378.02 115.766 1378.72 117.578 1380.13 119.109C1381.53 120.609 1383.22 121.359 1385.19 121.359C1387.19 121.359 1388.89 120.594 1390.3 119.062C1391.71 117.5 1392.41 115.703 1392.41 113.672C1392.41 111.328 1390.88 109.281 1387.82 107.531C1387.32 107.219 1386.66 106.844 1385.85 106.406C1385.07 105.938 1384.13 105.406 1383.03 104.812C1381.94 104.219 1380.88 103.641 1379.85 103.078C1378.82 102.484 1377.82 101.922 1376.85 101.391C1373.35 99.3281 1370.74 96.75 1369.02 93.6562C1367.33 90.5312 1366.49 87.0312 1366.49 83.1562C1366.49 79.5938 1367.36 76.375 1369.11 73.5C1370.86 70.6562 1373.14 68.4062 1375.96 66.75C1378.8 65.0625 1381.88 64.2188 1385.19 64.2188C1388.6 64.2188 1391.72 65.0625 1394.57 66.75C1397.41 68.4688 1399.67 70.75 1401.36 73.5938C1403.08 76.4375 1403.94 79.625 1403.94 83.1562V91.0312C1403.94 91.2812 1403.82 91.4062 1403.57 91.4062H1392.78C1392.53 91.4062 1392.41 91.2812 1392.41 91.0312L1392.32 83.1562C1392.32 80.9062 1391.61 79.0781 1390.21 77.6719C1388.8 76.2656 1387.13 75.5625 1385.19 75.5625C1383.22 75.5625 1381.53 76.3125 1380.13 77.8125C1378.72 79.3125 1378.02 81.0938 1378.02 83.1562C1378.02 85.25 1378.46 87 1379.33 88.4062C1380.24 89.8125 1381.88 91.1562 1384.25 92.4375C1384.5 92.5625 1385.08 92.875 1385.99 93.375C1386.89 93.875 1387.89 94.4375 1388.99 95.0625C1390.11 95.6562 1391.13 96.2031 1392.03 96.7031C1392.94 97.1719 1393.49 97.4531 1393.67 97.5469C1396.86 99.3281 1399.38 101.516 1401.22 104.109C1403.1 106.703 1404.03 109.891 1404.03 113.672C1404.03 117.328 1403.19 120.609 1401.5 123.516C1399.78 126.422 1397.5 128.719 1394.66 130.406C1391.82 132.094 1388.66 132.938 1385.19 132.938Z" fill="white"/>
<path d="M718.827 225L715.312 215.938H703.866L700.37 225H697.011L708.183 196.328H711.171L722.265 225H718.827ZM714.316 212.988L710.976 203.984C710.898 203.75 710.767 203.366 710.585 202.832C710.416 202.298 710.24 201.745 710.058 201.172C709.875 200.599 709.726 200.137 709.609 199.785C709.478 200.319 709.335 200.853 709.179 201.387C709.036 201.908 708.892 202.396 708.749 202.852C708.606 203.294 708.482 203.672 708.378 203.984L704.98 212.988H714.316ZM744.081 196.445C747.766 196.445 750.455 197.168 752.148 198.613C753.853 200.046 754.706 202.103 754.706 204.785C754.706 205.996 754.504 207.148 754.101 208.242C753.71 209.323 753.072 210.28 752.187 211.113C751.301 211.934 750.136 212.585 748.691 213.066C747.258 213.535 745.5 213.77 743.417 213.77H739.941V225H736.62V196.445H744.081ZM743.769 199.277H739.941V210.918H743.046C744.869 210.918 746.386 210.723 747.597 210.332C748.821 209.941 749.739 209.31 750.351 208.438C750.963 207.552 751.269 206.38 751.269 204.922C751.269 203.021 750.663 201.608 749.452 200.684C748.241 199.746 746.347 199.277 743.769 199.277ZM768.398 196.445C770.741 196.445 772.675 196.738 774.198 197.324C775.735 197.897 776.881 198.776 777.636 199.961C778.391 201.146 778.769 202.656 778.769 204.492C778.769 206.003 778.495 207.266 777.948 208.281C777.401 209.284 776.685 210.098 775.8 210.723C774.915 211.348 773.97 211.829 772.968 212.168L780.8 225H776.933L769.941 213.086H764.003V225H760.683V196.445H768.398ZM768.202 199.316H764.003V210.273H768.534C770.865 210.273 772.577 209.798 773.671 208.848C774.778 207.897 775.331 206.497 775.331 204.648C775.331 202.708 774.745 201.335 773.573 200.527C772.415 199.72 770.624 199.316 768.202 199.316ZM785.37 225V196.445H788.691V225H785.37ZM809.101 225L799.511 199.727H799.355C799.407 200.26 799.452 200.911 799.491 201.68C799.53 202.448 799.563 203.288 799.589 204.199C799.615 205.098 799.628 206.016 799.628 206.953V225H796.542V196.445H801.464L810.507 220.195H810.644L819.823 196.445H824.706V225H821.425V206.719C821.425 205.872 821.438 205.026 821.464 204.18C821.49 203.32 821.523 202.513 821.562 201.758C821.601 200.99 821.64 200.326 821.679 199.766H821.523L811.816 225H809.101ZM848.417 225H832.519V196.445H848.417V199.375H835.839V208.613H847.694V211.504H835.839V222.07H848.417V225ZM854.745 225V196.445H858.066V225H854.745ZM873.632 196.445C875.976 196.445 877.909 196.738 879.433 197.324C880.969 197.897 882.115 198.776 882.87 199.961C883.625 201.146 884.003 202.656 884.003 204.492C884.003 206.003 883.73 207.266 883.183 208.281C882.636 209.284 881.92 210.098 881.034 210.723C880.149 211.348 879.205 211.829 878.202 212.168L886.034 225H882.167L875.175 213.086H869.237V225H865.917V196.445H873.632ZM873.437 199.316H869.237V210.273H873.769C876.099 210.273 877.812 209.798 878.905 208.848C880.012 207.897 880.566 206.497 880.566 204.648C880.566 202.708 879.98 201.335 878.808 200.527C877.649 199.72 875.859 199.316 873.437 199.316ZM908.515 225L904.999 215.938H893.554L890.058 225H886.698L897.87 196.328H900.859L911.952 225H908.515ZM904.003 212.988L900.663 203.984C900.585 203.75 900.455 203.366 900.273 202.832C900.103 202.298 899.928 201.745 899.745 201.172C899.563 200.599 899.413 200.137 899.296 199.785C899.166 200.319 899.023 200.853 898.866 201.387C898.723 201.908 898.58 202.396 898.437 202.852C898.293 203.294 898.17 203.672 898.066 203.984L894.667 212.988H904.003ZM938.515 198.965C936.939 198.965 935.52 199.238 934.257 199.785C933.007 200.319 931.939 201.1 931.054 202.129C930.181 203.145 929.511 204.375 929.042 205.82C928.573 207.266 928.339 208.893 928.339 210.703C928.339 213.099 928.71 215.182 929.452 216.953C930.207 218.711 931.327 220.072 932.812 221.035C934.309 221.999 936.178 222.48 938.417 222.48C939.693 222.48 940.891 222.376 942.011 222.168C943.144 221.947 944.244 221.673 945.312 221.348V224.238C944.27 224.629 943.176 224.915 942.03 225.098C940.885 225.293 939.524 225.391 937.948 225.391C935.045 225.391 932.616 224.792 930.663 223.594C928.723 222.383 927.265 220.677 926.288 218.477C925.325 216.276 924.843 213.678 924.843 210.684C924.843 208.522 925.142 206.549 925.741 204.766C926.353 202.969 927.239 201.419 928.398 200.117C929.569 198.815 931.002 197.812 932.694 197.109C934.4 196.393 936.353 196.035 938.554 196.035C939.999 196.035 941.392 196.178 942.734 196.465C944.075 196.751 945.286 197.161 946.366 197.695L945.038 200.508C944.127 200.091 943.124 199.733 942.03 199.434C940.95 199.121 939.778 198.965 938.515 198.965ZM967.401 225H951.503V196.445H967.401V199.375H954.823V208.613H966.679V211.504H954.823V222.07H967.401V225ZM981.444 196.445C983.788 196.445 985.722 196.738 987.245 197.324C988.782 197.897 989.928 198.776 990.683 199.961C991.438 201.146 991.816 202.656 991.816 204.492C991.816 206.003 991.542 207.266 990.995 208.281C990.448 209.284 989.732 210.098 988.847 210.723C987.961 211.348 987.017 211.829 986.015 212.168L993.847 225H989.98L982.987 213.086H977.05V225H973.73V196.445H981.444ZM981.249 199.316H977.05V210.273H981.581C983.912 210.273 985.624 209.798 986.718 208.848C987.825 207.897 988.378 206.497 988.378 204.648C988.378 202.708 987.792 201.335 986.62 200.527C985.461 199.72 983.671 199.316 981.249 199.316ZM1018.36 196.445L1008.1 225H1004.76L994.511 196.445H997.987L1004.67 215.254C1004.94 216.009 1005.18 216.732 1005.39 217.422C1005.61 218.112 1005.81 218.776 1005.98 219.414C1006.14 220.052 1006.29 220.671 1006.42 221.27C1006.56 220.671 1006.7 220.052 1006.87 219.414C1007.04 218.763 1007.24 218.092 1007.46 217.402C1007.68 216.699 1007.93 215.964 1008.2 215.195L1014.84 196.445H1018.36ZM1038.18 225H1022.28V196.445H1038.18V199.375H1025.6V208.613H1037.46V211.504H1025.6V222.07H1038.18V225ZM1040.39 232.52C1039.74 232.52 1039.17 232.474 1038.67 232.383C1038.18 232.292 1037.75 232.168 1037.4 232.012V229.18C1037.82 229.31 1038.27 229.408 1038.75 229.473C1039.23 229.551 1039.75 229.59 1040.31 229.59C1041.04 229.59 1041.71 229.447 1042.32 229.16C1042.94 228.874 1043.42 228.385 1043.79 227.695C1044.15 227.005 1044.34 226.055 1044.34 224.844V196.445H1047.67V224.59C1047.67 226.374 1047.38 227.852 1046.78 229.023C1046.19 230.195 1045.35 231.068 1044.26 231.641C1043.18 232.227 1041.89 232.52 1040.39 232.52ZM1073.16 225L1069.65 215.938H1058.2L1054.71 225H1051.35L1062.52 196.328H1065.51L1076.6 225H1073.16ZM1068.65 212.988L1065.31 203.984C1065.23 203.75 1065.1 203.366 1064.92 202.832C1064.75 202.298 1064.58 201.745 1064.39 201.172C1064.21 200.599 1064.06 200.137 1063.94 199.785C1063.81 200.319 1063.67 200.853 1063.51 201.387C1063.37 201.908 1063.23 202.396 1063.09 202.852C1062.94 203.294 1062.82 203.672 1062.71 203.984L1059.32 212.988H1068.65ZM1088.28 196.445C1090.62 196.445 1092.56 196.738 1094.08 197.324C1095.62 197.897 1096.76 198.776 1097.52 199.961C1098.27 201.146 1098.65 202.656 1098.65 204.492C1098.65 206.003 1098.38 207.266 1097.83 208.281C1097.28 209.284 1096.57 210.098 1095.68 210.723C1094.8 211.348 1093.85 211.829 1092.85 212.168L1100.68 225H1096.82L1089.82 213.086H1083.89V225H1080.57V196.445H1088.28ZM1088.09 199.316H1083.89V210.273H1088.42C1090.75 210.273 1092.46 209.798 1093.55 208.848C1094.66 207.897 1095.21 206.497 1095.21 204.648C1095.21 202.708 1094.63 201.335 1093.46 200.527C1092.3 199.72 1090.51 199.316 1088.09 199.316ZM1105.25 225V196.445H1108.57V225H1105.25ZM1134.34 225L1130.82 215.938H1119.37L1115.88 225H1112.52L1123.69 196.328H1126.68L1137.77 225H1134.34ZM1129.82 212.988L1126.48 203.984C1126.41 203.75 1126.28 203.366 1126.09 202.832C1125.92 202.298 1125.75 201.745 1125.57 201.172C1125.38 200.599 1125.23 200.137 1125.12 199.785C1124.99 200.319 1124.84 200.853 1124.69 201.387C1124.54 201.908 1124.4 202.396 1124.26 202.852C1124.11 203.294 1123.99 203.672 1123.89 203.984L1120.49 212.988H1129.82ZM1174.8 210.449C1174.8 213.665 1174.22 216.354 1173.05 218.516C1171.87 220.664 1170.17 222.285 1167.95 223.379C1165.73 224.46 1163.05 225 1159.88 225H1152.13V196.445H1160.74C1163.64 196.445 1166.14 196.979 1168.24 198.047C1170.34 199.102 1171.95 200.671 1173.09 202.754C1174.23 204.824 1174.8 207.389 1174.8 210.449ZM1171.31 210.566C1171.31 208.001 1170.88 205.885 1170.02 204.219C1169.17 202.552 1167.92 201.315 1166.27 200.508C1164.63 199.688 1162.62 199.277 1160.23 199.277H1155.45V222.148H1159.49C1163.42 222.148 1166.37 221.178 1168.34 219.238C1170.32 217.298 1171.31 214.408 1171.31 210.566ZM1205.92 210.684C1205.92 212.884 1205.64 214.889 1205.08 216.699C1204.52 218.496 1203.68 220.046 1202.58 221.348C1201.48 222.637 1200.12 223.633 1198.5 224.336C1196.87 225.039 1194.98 225.391 1192.83 225.391C1190.62 225.391 1188.68 225.039 1187.03 224.336C1185.39 223.633 1184.02 222.63 1182.93 221.328C1181.85 220.026 1181.03 218.47 1180.49 216.66C1179.95 214.85 1179.69 212.845 1179.69 210.645C1179.69 207.728 1180.17 205.169 1181.13 202.969C1182.1 200.768 1183.55 199.056 1185.51 197.832C1187.47 196.608 1189.93 195.996 1192.89 195.996C1195.72 195.996 1198.09 196.602 1200.02 197.812C1201.96 199.023 1203.42 200.729 1204.41 202.93C1205.42 205.117 1205.92 207.702 1205.92 210.684ZM1183.18 210.684C1183.18 213.105 1183.53 215.202 1184.22 216.973C1184.91 218.743 1185.96 220.111 1187.38 221.074C1188.81 222.038 1190.63 222.52 1192.83 222.52C1195.04 222.52 1196.85 222.038 1198.26 221.074C1199.68 220.111 1200.73 218.743 1201.41 216.973C1202.08 215.202 1202.42 213.105 1202.42 210.684C1202.42 206.999 1201.65 204.121 1200.1 202.051C1198.56 199.967 1196.16 198.926 1192.89 198.926C1190.68 198.926 1188.85 199.401 1187.42 200.352C1185.99 201.302 1184.92 202.656 1184.22 204.414C1183.53 206.159 1183.18 208.249 1183.18 210.684ZM1222.67 196.445H1230.76C1234.33 196.445 1237.01 196.979 1238.81 198.047C1240.6 199.115 1241.5 200.931 1241.5 203.496C1241.5 204.603 1241.29 205.599 1240.86 206.484C1240.44 207.357 1239.83 208.079 1239.02 208.652C1238.22 209.225 1237.22 209.622 1236.03 209.844V210.039C1237.28 210.234 1238.39 210.592 1239.35 211.113C1240.32 211.634 1241.07 212.363 1241.62 213.301C1242.17 214.238 1242.44 215.43 1242.44 216.875C1242.44 218.633 1242.03 220.117 1241.21 221.328C1240.4 222.539 1239.26 223.457 1237.77 224.082C1236.29 224.694 1234.53 225 1232.5 225H1222.67V196.445ZM1226 208.691H1231.46C1233.95 208.691 1235.67 208.281 1236.62 207.461C1237.58 206.641 1238.07 205.443 1238.07 203.867C1238.07 202.24 1237.49 201.068 1236.35 200.352C1235.21 199.635 1233.4 199.277 1230.92 199.277H1226V208.691ZM1226 211.484V222.168H1231.93C1234.47 222.168 1236.27 221.673 1237.32 220.684C1238.38 219.681 1238.91 218.333 1238.91 216.641C1238.91 215.56 1238.66 214.635 1238.18 213.867C1237.71 213.099 1236.95 212.513 1235.88 212.109C1234.82 211.693 1233.41 211.484 1231.64 211.484H1226ZM1256.25 196.445C1258.59 196.445 1260.53 196.738 1262.05 197.324C1263.59 197.897 1264.73 198.776 1265.49 199.961C1266.24 201.146 1266.62 202.656 1266.62 204.492C1266.62 206.003 1266.35 207.266 1265.8 208.281C1265.25 209.284 1264.54 210.098 1263.65 210.723C1262.77 211.348 1261.82 211.829 1260.82 212.168L1268.65 225H1264.78L1257.79 213.086H1251.85V225H1248.53V196.445H1256.25ZM1256.05 199.316H1251.85V210.273H1256.39C1258.72 210.273 1260.43 209.798 1261.52 208.848C1262.63 207.897 1263.18 206.497 1263.18 204.648C1263.18 202.708 1262.6 201.335 1261.42 200.527C1260.27 199.72 1258.48 199.316 1256.05 199.316ZM1291.13 225L1287.62 215.938H1276.17L1272.67 225H1269.32L1280.49 196.328H1283.48L1294.57 225H1291.13ZM1286.62 212.988L1283.28 203.984C1283.2 203.75 1283.07 203.366 1282.89 202.832C1282.72 202.298 1282.54 201.745 1282.36 201.172C1282.18 200.599 1282.03 200.137 1281.91 199.785C1281.78 200.319 1281.64 200.853 1281.48 201.387C1281.34 201.908 1281.2 202.396 1281.05 202.852C1280.91 203.294 1280.79 203.672 1280.68 203.984L1277.28 212.988H1286.62ZM1314.65 217.402C1314.65 219.095 1314.22 220.54 1313.38 221.738C1312.54 222.923 1311.37 223.828 1309.86 224.453C1308.35 225.078 1306.57 225.391 1304.53 225.391C1303.45 225.391 1302.43 225.339 1301.46 225.234C1300.5 225.13 1299.62 224.98 1298.81 224.785C1298 224.59 1297.29 224.349 1296.68 224.062V220.879C1297.66 221.283 1298.85 221.66 1300.25 222.012C1301.66 222.35 1303.13 222.52 1304.67 222.52C1306.1 222.52 1307.31 222.331 1308.3 221.953C1309.29 221.562 1310.04 221.009 1310.55 220.293C1311.07 219.564 1311.33 218.691 1311.33 217.676C1311.33 216.699 1311.11 215.885 1310.68 215.234C1310.25 214.57 1309.54 213.971 1308.53 213.438C1307.54 212.891 1306.19 212.311 1304.47 211.699C1303.26 211.27 1302.19 210.801 1301.27 210.293C1300.34 209.772 1299.57 209.186 1298.94 208.535C1298.32 207.884 1297.84 207.129 1297.52 206.27C1297.21 205.41 1297.05 204.427 1297.05 203.32C1297.05 201.797 1297.43 200.495 1298.2 199.414C1298.98 198.32 1300.06 197.487 1301.42 196.914C1302.81 196.328 1304.39 196.035 1306.17 196.035C1307.69 196.035 1309.1 196.178 1310.39 196.465C1311.69 196.751 1312.88 197.135 1313.96 197.617L1312.93 200.469C1311.9 200.039 1310.81 199.681 1309.65 199.395C1308.5 199.108 1307.32 198.965 1306.09 198.965C1304.87 198.965 1303.83 199.147 1302.99 199.512C1302.15 199.863 1301.52 200.365 1301.07 201.016C1300.63 201.667 1300.41 202.441 1300.41 203.34C1300.41 204.342 1300.62 205.176 1301.03 205.84C1301.46 206.504 1302.14 207.096 1303.07 207.617C1304 208.125 1305.24 208.659 1306.78 209.219C1308.46 209.831 1309.88 210.482 1311.05 211.172C1312.23 211.849 1313.12 212.682 1313.73 213.672C1314.34 214.648 1314.65 215.892 1314.65 217.402ZM1320.49 225V196.445H1323.81V225H1320.49ZM1331.66 225V196.445H1334.98V222.031H1347.66V225H1331.66ZM1385.55 198.965C1383.97 198.965 1382.55 199.238 1381.29 199.785C1380.04 200.319 1378.97 201.1 1378.09 202.129C1377.21 203.145 1376.54 204.375 1376.07 205.82C1375.6 207.266 1375.37 208.893 1375.37 210.703C1375.37 213.099 1375.74 215.182 1376.48 216.953C1377.24 218.711 1378.36 220.072 1379.84 221.035C1381.34 221.999 1383.21 222.48 1385.45 222.48C1386.72 222.48 1387.92 222.376 1389.04 222.168C1390.17 221.947 1391.28 221.673 1392.34 221.348V224.238C1391.3 224.629 1390.21 224.915 1389.06 225.098C1387.92 225.293 1386.56 225.391 1384.98 225.391C1382.08 225.391 1379.65 224.792 1377.69 223.594C1375.75 222.383 1374.3 220.677 1373.32 218.477C1372.36 216.276 1371.87 213.678 1371.87 210.684C1371.87 208.522 1372.17 206.549 1372.77 204.766C1373.38 202.969 1374.27 201.419 1375.43 200.117C1376.6 198.815 1378.03 197.812 1379.73 197.109C1381.43 196.393 1383.38 196.035 1385.59 196.035C1387.03 196.035 1388.42 196.178 1389.76 196.465C1391.11 196.751 1392.32 197.161 1393.4 197.695L1392.07 200.508C1391.16 200.091 1390.16 199.733 1389.06 199.434C1387.98 199.121 1386.81 198.965 1385.55 198.965ZM1423.3 210.684C1423.3 212.884 1423.02 214.889 1422.46 216.699C1421.9 218.496 1421.07 220.046 1419.96 221.348C1418.87 222.637 1417.51 223.633 1415.88 224.336C1414.25 225.039 1412.36 225.391 1410.21 225.391C1408 225.391 1406.07 225.039 1404.41 224.336C1402.77 223.633 1401.41 222.63 1400.31 221.328C1399.23 220.026 1398.42 218.47 1397.87 216.66C1397.34 214.85 1397.07 212.845 1397.07 210.645C1397.07 207.728 1397.55 205.169 1398.51 202.969C1399.48 200.768 1400.94 199.056 1402.89 197.832C1404.86 196.608 1407.32 195.996 1410.27 195.996C1413.1 195.996 1415.47 196.602 1417.4 197.812C1419.34 199.023 1420.81 200.729 1421.8 202.93C1422.8 205.117 1423.3 207.702 1423.3 210.684ZM1400.57 210.684C1400.57 213.105 1400.91 215.202 1401.6 216.973C1402.29 218.743 1403.35 220.111 1404.76 221.074C1406.2 222.038 1408.01 222.52 1410.21 222.52C1412.43 222.52 1414.24 222.038 1415.64 221.074C1417.06 220.111 1418.11 218.743 1418.79 216.973C1419.47 215.202 1419.8 213.105 1419.8 210.684C1419.8 206.999 1419.03 204.121 1417.48 202.051C1415.94 199.967 1413.54 198.926 1410.27 198.926C1408.06 198.926 1406.24 199.401 1404.8 200.352C1403.37 201.302 1402.3 202.656 1401.6 204.414C1400.91 206.159 1400.57 208.249 1400.57 210.684ZM1442.23 225L1432.64 199.727H1432.48C1432.53 200.26 1432.58 200.911 1432.62 201.68C1432.66 202.448 1432.69 203.288 1432.71 204.199C1432.74 205.098 1432.75 206.016 1432.75 206.953V225H1429.67V196.445H1434.59L1443.63 220.195H1443.77L1452.95 196.445H1457.83V225H1454.55V206.719C1454.55 205.872 1454.56 205.026 1454.59 204.18C1454.62 203.32 1454.65 202.513 1454.69 201.758C1454.73 200.99 1454.76 200.326 1454.8 199.766H1454.65L1444.94 225H1442.23ZM1483.5 196.445C1487.18 196.445 1489.87 197.168 1491.56 198.613C1493.27 200.046 1494.12 202.103 1494.12 204.785C1494.12 205.996 1493.92 207.148 1493.51 208.242C1493.12 209.323 1492.49 210.28 1491.6 211.113C1490.72 211.934 1489.55 212.585 1488.1 213.066C1486.67 213.535 1484.91 213.77 1482.83 213.77H1479.35V225H1476.03V196.445H1483.5ZM1483.18 199.277H1479.35V210.918H1482.46C1484.28 210.918 1485.8 210.723 1487.01 210.332C1488.23 209.941 1489.15 209.31 1489.76 208.438C1490.38 207.552 1490.68 206.38 1490.68 204.922C1490.68 203.021 1490.08 201.608 1488.87 200.684C1487.66 199.746 1485.76 199.277 1483.18 199.277ZM1507.81 196.445C1510.16 196.445 1512.09 196.738 1513.61 197.324C1515.15 197.897 1516.29 198.776 1517.05 199.961C1517.81 201.146 1518.18 202.656 1518.18 204.492C1518.18 206.003 1517.91 207.266 1517.36 208.281C1516.82 209.284 1516.1 210.098 1515.21 210.723C1514.33 211.348 1513.38 211.829 1512.38 212.168L1520.21 225H1516.35L1509.35 213.086H1503.42V225H1500.1V196.445H1507.81ZM1507.62 199.316H1503.42V210.273H1507.95C1510.28 210.273 1511.99 209.798 1513.09 208.848C1514.19 207.897 1514.75 206.497 1514.75 204.648C1514.75 202.708 1514.16 201.335 1512.99 200.527C1511.83 199.72 1510.04 199.316 1507.62 199.316ZM1549.55 210.684C1549.55 212.884 1549.27 214.889 1548.71 216.699C1548.15 218.496 1547.32 220.046 1546.21 221.348C1545.12 222.637 1543.76 223.633 1542.13 224.336C1540.5 225.039 1538.61 225.391 1536.46 225.391C1534.25 225.391 1532.32 225.039 1530.66 224.336C1529.02 223.633 1527.66 222.63 1526.56 221.328C1525.48 220.026 1524.67 218.47 1524.12 216.66C1523.59 214.85 1523.32 212.845 1523.32 210.645C1523.32 207.728 1523.8 205.169 1524.76 202.969C1525.73 200.768 1527.19 199.056 1529.14 197.832C1531.11 196.608 1533.57 195.996 1536.52 195.996C1539.35 195.996 1541.72 196.602 1543.65 197.812C1545.59 199.023 1547.06 200.729 1548.05 202.93C1549.05 205.117 1549.55 207.702 1549.55 210.684ZM1526.82 210.684C1526.82 213.105 1527.16 215.202 1527.85 216.973C1528.54 218.743 1529.6 220.111 1531.01 221.074C1532.45 222.038 1534.26 222.52 1536.46 222.52C1538.68 222.52 1540.49 222.038 1541.89 221.074C1543.31 220.111 1544.36 218.743 1545.04 216.973C1545.72 215.202 1546.05 213.105 1546.05 210.684C1546.05 206.999 1545.28 204.121 1543.73 202.051C1542.19 199.967 1539.79 198.926 1536.52 198.926C1534.31 198.926 1532.49 199.401 1531.05 200.352C1529.62 201.302 1528.55 202.656 1527.85 204.414C1527.16 206.159 1526.82 208.249 1526.82 210.684ZM1578.59 210.449C1578.59 213.665 1578.01 216.354 1576.84 218.516C1575.66 220.664 1573.96 222.285 1571.74 223.379C1569.52 224.46 1566.84 225 1563.67 225H1555.92V196.445H1564.53C1567.43 196.445 1569.93 196.979 1572.03 198.047C1574.13 199.102 1575.74 200.671 1576.87 202.754C1578.02 204.824 1578.59 207.389 1578.59 210.449ZM1575.1 210.566C1575.1 208.001 1574.67 205.885 1573.81 204.219C1572.96 202.552 1571.71 201.315 1570.06 200.508C1568.42 199.688 1566.41 199.277 1564.02 199.277H1559.24V222.148H1563.28C1567.21 222.148 1570.16 221.178 1572.13 219.238C1574.11 217.298 1575.1 214.408 1575.1 210.566ZM1606.54 196.445V214.922C1606.54 216.94 1606.13 218.737 1605.31 220.312C1604.5 221.888 1603.28 223.132 1601.64 224.043C1600 224.941 1597.94 225.391 1595.47 225.391C1591.94 225.391 1589.25 224.434 1587.4 222.52C1585.57 220.605 1584.65 218.047 1584.65 214.844V196.445H1587.99V214.941C1587.99 217.363 1588.63 219.232 1589.9 220.547C1591.19 221.862 1593.11 222.52 1595.66 222.52C1597.41 222.52 1598.83 222.207 1599.94 221.582C1601.06 220.944 1601.89 220.059 1602.42 218.926C1602.97 217.78 1603.24 216.458 1603.24 214.961V196.445H1606.54ZM1626.33 198.965C1624.75 198.965 1623.33 199.238 1622.07 199.785C1620.82 200.319 1619.75 201.1 1618.87 202.129C1617.99 203.145 1617.32 204.375 1616.85 205.82C1616.39 207.266 1616.15 208.893 1616.15 210.703C1616.15 213.099 1616.52 215.182 1617.26 216.953C1618.02 218.711 1619.14 220.072 1620.62 221.035C1622.12 221.999 1623.99 222.48 1626.23 222.48C1627.51 222.48 1628.7 222.376 1629.82 222.168C1630.96 221.947 1632.06 221.673 1633.12 221.348V224.238C1632.08 224.629 1630.99 224.915 1629.84 225.098C1628.7 225.293 1627.34 225.391 1625.76 225.391C1622.86 225.391 1620.43 224.792 1618.48 223.594C1616.54 222.383 1615.08 220.677 1614.1 218.477C1613.14 216.276 1612.66 213.678 1612.66 210.684C1612.66 208.522 1612.95 206.549 1613.55 204.766C1614.17 202.969 1615.05 201.419 1616.21 200.117C1617.38 198.815 1618.81 197.812 1620.51 197.109C1622.21 196.393 1624.17 196.035 1626.37 196.035C1627.81 196.035 1629.2 196.178 1630.55 196.465C1631.89 196.751 1633.1 197.161 1634.18 197.695L1632.85 200.508C1631.94 200.091 1630.94 199.733 1629.84 199.434C1628.76 199.121 1627.59 198.965 1626.33 198.965ZM1628.98 230.586C1628.98 231.849 1628.5 232.832 1627.52 233.535C1626.54 234.251 1625.11 234.609 1623.22 234.609C1622.82 234.609 1622.43 234.583 1622.07 234.531C1621.7 234.492 1621.41 234.447 1621.19 234.395V232.344C1621.44 232.396 1621.76 232.441 1622.15 232.48C1622.54 232.52 1622.93 232.539 1623.32 232.539C1624.3 232.539 1625.04 232.396 1625.57 232.109C1626.09 231.823 1626.35 231.341 1626.35 230.664C1626.35 229.948 1626 229.427 1625.29 229.102C1624.6 228.776 1623.72 228.555 1622.64 228.438L1624.37 225H1626.54L1625.49 227.188C1626.14 227.318 1626.72 227.52 1627.25 227.793C1627.78 228.066 1628.2 228.431 1628.51 228.887C1628.83 229.342 1628.98 229.909 1628.98 230.586ZM1657.23 225L1653.71 215.938H1642.26L1638.77 225H1635.41L1646.58 196.328H1649.57L1660.66 225H1657.23ZM1652.71 212.988L1649.37 203.984C1649.3 203.75 1649.17 203.366 1648.98 202.832C1648.81 202.298 1648.64 201.745 1648.46 201.172C1648.27 200.599 1648.12 200.137 1648.01 199.785C1647.88 200.319 1647.73 200.853 1647.58 201.387C1647.43 201.908 1647.29 202.396 1647.15 202.852C1647 203.294 1646.88 203.672 1646.78 203.984L1643.38 212.988H1652.71ZM1640.66 193.535C1640.74 192.754 1640.89 192.057 1641.11 191.445C1641.33 190.833 1641.63 190.312 1641.99 189.883C1642.36 189.453 1642.79 189.128 1643.28 188.906C1643.79 188.672 1644.35 188.555 1644.96 188.555C1645.56 188.555 1646.13 188.678 1646.68 188.926C1647.23 189.16 1647.75 189.434 1648.24 189.746C1648.74 190.046 1649.21 190.319 1649.67 190.566C1650.14 190.801 1650.59 190.918 1651.01 190.918C1651.64 190.918 1652.12 190.729 1652.46 190.352C1652.81 189.961 1653.08 189.349 1653.26 188.516H1655.17C1655.01 190.039 1654.56 191.257 1653.83 192.168C1653.1 193.066 1652.12 193.516 1650.88 193.516C1650.31 193.516 1649.75 193.398 1649.22 193.164C1648.68 192.917 1648.17 192.643 1647.67 192.344C1647.18 192.031 1646.69 191.758 1646.21 191.523C1645.74 191.276 1645.28 191.152 1644.82 191.152C1644.19 191.152 1643.7 191.348 1643.36 191.738C1643.02 192.116 1642.76 192.715 1642.58 193.535H1640.66ZM1689.39 210.684C1689.39 212.884 1689.11 214.889 1688.55 216.699C1687.99 218.496 1687.16 220.046 1686.05 221.348C1684.96 222.637 1683.6 223.633 1681.97 224.336C1680.34 225.039 1678.46 225.391 1676.31 225.391C1674.09 225.391 1672.16 225.039 1670.51 224.336C1668.87 223.633 1667.5 222.63 1666.41 221.328C1665.32 220.026 1664.51 218.47 1663.96 216.66C1663.43 214.85 1663.16 212.845 1663.16 210.645C1663.16 207.728 1663.64 205.169 1664.61 202.969C1665.57 200.768 1667.03 199.056 1668.98 197.832C1670.95 196.608 1673.41 195.996 1676.37 195.996C1679.19 195.996 1681.57 196.602 1683.5 197.812C1685.44 199.023 1686.9 200.729 1687.89 202.93C1688.89 205.117 1689.39 207.702 1689.39 210.684ZM1666.66 210.684C1666.66 213.105 1667 215.202 1667.69 216.973C1668.38 218.743 1669.44 220.111 1670.86 221.074C1672.29 222.038 1674.11 222.52 1676.31 222.52C1678.52 222.52 1680.33 222.038 1681.74 221.074C1683.16 220.111 1684.2 218.743 1684.88 216.973C1685.56 215.202 1685.9 213.105 1685.9 210.684C1685.9 206.999 1685.12 204.121 1683.57 202.051C1682.04 199.967 1679.63 198.926 1676.37 198.926C1674.15 198.926 1672.33 199.401 1670.9 200.352C1669.47 201.302 1668.4 202.656 1667.69 204.414C1667 206.159 1666.66 208.249 1666.66 210.684ZM904.179 279H901.015V258.766C901.015 257.997 901.015 257.34 901.015 256.793C901.028 256.233 901.041 255.725 901.054 255.27C901.08 254.801 901.112 254.326 901.151 253.844C900.748 254.26 900.37 254.618 900.019 254.918C899.667 255.204 899.231 255.562 898.71 255.992L895.448 258.609L893.749 256.402L901.484 250.445H904.179V279ZM933.866 264.684C933.866 267.001 933.691 269.072 933.339 270.895C932.987 272.717 932.434 274.26 931.679 275.523C930.924 276.786 929.947 277.75 928.749 278.414C927.551 279.065 926.112 279.391 924.433 279.391C922.31 279.391 920.553 278.811 919.159 277.652C917.779 276.493 916.744 274.82 916.054 272.633C915.377 270.432 915.038 267.783 915.038 264.684C915.038 261.637 915.344 259.02 915.956 256.832C916.581 254.632 917.584 252.945 918.964 251.773C920.344 250.589 922.167 249.996 924.433 249.996C926.581 249.996 928.352 250.582 929.745 251.754C931.138 252.913 932.174 254.592 932.851 256.793C933.528 258.98 933.866 261.611 933.866 264.684ZM918.3 264.684C918.3 267.34 918.502 269.553 918.905 271.324C919.309 273.095 919.96 274.423 920.859 275.309C921.77 276.181 922.961 276.617 924.433 276.617C925.904 276.617 927.089 276.181 927.987 275.309C928.899 274.436 929.556 273.115 929.96 271.344C930.377 269.573 930.585 267.353 930.585 264.684C930.585 262.066 930.383 259.879 929.98 258.121C929.576 256.35 928.925 255.022 928.026 254.137C927.128 253.238 925.93 252.789 924.433 252.789C922.935 252.789 921.737 253.238 920.839 254.137C919.941 255.022 919.29 256.35 918.886 258.121C918.495 259.879 918.3 262.066 918.3 264.684ZM956.757 264.684C956.757 267.001 956.581 269.072 956.23 270.895C955.878 272.717 955.325 274.26 954.569 275.523C953.814 276.786 952.838 277.75 951.64 278.414C950.442 279.065 949.003 279.391 947.323 279.391C945.201 279.391 943.443 278.811 942.05 277.652C940.67 276.493 939.635 274.82 938.944 272.633C938.267 270.432 937.929 267.783 937.929 264.684C937.929 261.637 938.235 259.02 938.847 256.832C939.472 254.632 940.474 252.945 941.855 251.773C943.235 250.589 945.058 249.996 947.323 249.996C949.472 249.996 951.243 250.582 952.636 251.754C954.029 252.913 955.064 254.592 955.741 256.793C956.418 258.98 956.757 261.611 956.757 264.684ZM941.191 264.684C941.191 267.34 941.392 269.553 941.796 271.324C942.2 273.095 942.851 274.423 943.749 275.309C944.661 276.181 945.852 276.617 947.323 276.617C948.795 276.617 949.98 276.181 950.878 275.309C951.79 274.436 952.447 273.115 952.851 271.344C953.267 269.573 953.476 267.353 953.476 264.684C953.476 262.066 953.274 259.879 952.87 258.121C952.467 256.35 951.816 255.022 950.917 254.137C950.019 253.238 948.821 252.789 947.323 252.789C945.826 252.789 944.628 253.238 943.73 254.137C942.831 255.022 942.18 256.35 941.776 258.121C941.386 259.879 941.191 262.066 941.191 264.684ZM966.601 250.035C968.554 250.035 970.032 250.816 971.034 252.379C972.05 253.928 972.558 256.122 972.558 258.961C972.558 261.799 972.069 264.013 971.093 265.602C970.116 267.177 968.619 267.965 966.601 267.965C964.726 267.965 963.287 267.177 962.284 265.602C961.295 264.013 960.8 261.799 960.8 258.961C960.8 256.122 961.275 253.928 962.226 252.379C963.176 250.816 964.635 250.035 966.601 250.035ZM966.601 252.359C965.546 252.359 964.771 252.913 964.276 254.02C963.782 255.113 963.534 256.76 963.534 258.961C963.534 261.161 963.782 262.822 964.276 263.941C964.771 265.061 965.546 265.621 966.601 265.621C967.694 265.621 968.508 265.061 969.042 263.941C969.576 262.822 969.843 261.161 969.843 258.961C969.843 256.773 969.576 255.126 969.042 254.02C968.521 252.913 967.707 252.359 966.601 252.359ZM984.687 250.445L968.847 279H965.995L981.835 250.445H984.687ZM983.925 261.48C985.865 261.48 987.343 262.262 988.359 263.824C989.374 265.374 989.882 267.568 989.882 270.406C989.882 273.232 989.394 275.439 988.417 277.027C987.441 278.603 985.943 279.391 983.925 279.391C982.037 279.391 980.598 278.603 979.609 277.027C978.619 275.439 978.124 273.232 978.124 270.406C978.124 267.568 978.593 265.374 979.53 263.824C980.481 262.262 981.946 261.48 983.925 261.48ZM983.925 263.824C982.87 263.824 982.095 264.371 981.601 265.465C981.106 266.559 980.859 268.206 980.859 270.406C980.859 272.607 981.106 274.267 981.601 275.387C982.095 276.493 982.87 277.047 983.925 277.047C985.019 277.047 985.832 276.5 986.366 275.406C986.9 274.299 987.167 272.633 987.167 270.406C987.167 268.219 986.9 266.578 986.366 265.484C985.845 264.378 985.032 263.824 983.925 263.824ZM1030.96 264.684C1030.96 266.884 1030.68 268.889 1030.12 270.699C1029.56 272.496 1028.72 274.046 1027.62 275.348C1026.52 276.637 1025.16 277.633 1023.53 278.336C1021.91 279.039 1020.02 279.391 1017.87 279.391C1015.66 279.391 1013.72 279.039 1012.07 278.336C1010.43 277.633 1009.06 276.63 1007.97 275.328C1006.89 274.026 1006.07 272.47 1005.53 270.66C1004.99 268.85 1004.73 266.845 1004.73 264.645C1004.73 261.728 1005.21 259.169 1006.17 256.969C1007.13 254.768 1008.59 253.056 1010.55 251.832C1012.51 250.608 1014.97 249.996 1017.93 249.996C1020.75 249.996 1023.13 250.602 1025.06 251.812C1027 253.023 1028.46 254.729 1029.45 256.93C1030.45 259.117 1030.96 261.702 1030.96 264.684ZM1008.22 264.684C1008.22 267.105 1008.57 269.202 1009.26 270.973C1009.95 272.743 1011 274.111 1012.42 275.074C1013.85 276.038 1015.67 276.52 1017.87 276.52C1020.08 276.52 1021.89 276.038 1023.3 275.074C1024.72 274.111 1025.77 272.743 1026.44 270.973C1027.12 269.202 1027.46 267.105 1027.46 264.684C1027.46 260.999 1026.69 258.121 1025.14 256.051C1023.6 253.967 1021.2 252.926 1017.93 252.926C1015.72 252.926 1013.89 253.401 1012.46 254.352C1011.03 255.302 1009.96 256.656 1009.26 258.414C1008.57 260.159 1008.22 262.249 1008.22 264.684ZM1045.04 250.445C1047.38 250.445 1049.32 250.738 1050.84 251.324C1052.38 251.897 1053.52 252.776 1054.28 253.961C1055.03 255.146 1055.41 256.656 1055.41 258.492C1055.41 260.003 1055.14 261.266 1054.59 262.281C1054.04 263.284 1053.33 264.098 1052.44 264.723C1051.56 265.348 1050.61 265.829 1049.61 266.168L1057.44 279H1053.57L1046.58 267.086H1040.64V279H1037.32V250.445H1045.04ZM1044.84 253.316H1040.64V264.273H1045.17C1047.51 264.273 1049.22 263.798 1050.31 262.848C1051.42 261.897 1051.97 260.497 1051.97 258.648C1051.97 256.708 1051.39 255.335 1050.21 254.527C1049.06 253.72 1047.26 253.316 1044.84 253.316ZM1074.22 264.039H1084.2V277.887C1082.7 278.395 1081.16 278.772 1079.57 279.02C1077.99 279.267 1076.23 279.391 1074.28 279.391C1071.31 279.391 1068.8 278.798 1066.76 277.613C1064.73 276.428 1063.18 274.742 1062.13 272.555C1061.07 270.354 1060.55 267.743 1060.55 264.723C1060.55 261.767 1061.13 259.189 1062.28 256.988C1063.46 254.788 1065.14 253.082 1067.34 251.871C1069.56 250.647 1072.21 250.035 1075.31 250.035C1076.9 250.035 1078.4 250.185 1079.82 250.484C1081.26 250.771 1082.58 251.181 1083.81 251.715L1082.54 254.605C1081.48 254.15 1080.32 253.759 1079.04 253.434C1077.78 253.108 1076.47 252.945 1075.12 252.945C1072.79 252.945 1070.79 253.427 1069.12 254.391C1067.47 255.354 1066.2 256.715 1065.31 258.473C1064.44 260.23 1064 262.314 1064 264.723C1064 267.105 1064.39 269.182 1065.16 270.953C1065.92 272.711 1067.12 274.078 1068.75 275.055C1070.38 276.031 1072.47 276.52 1075.04 276.52C1076.33 276.52 1077.43 276.448 1078.36 276.305C1079.28 276.148 1080.12 275.966 1080.88 275.758V267.008H1074.22V264.039ZM1109.02 279L1105.51 269.938H1094.06L1090.57 279H1087.21L1098.38 250.328H1101.37L1112.46 279H1109.02ZM1104.51 266.988L1101.17 257.984C1101.09 257.75 1100.96 257.366 1100.78 256.832C1100.61 256.298 1100.44 255.745 1100.25 255.172C1100.07 254.599 1099.92 254.137 1099.8 253.785C1099.67 254.319 1099.53 254.853 1099.37 255.387C1099.23 255.908 1099.09 256.396 1098.94 256.852C1098.8 257.294 1098.68 257.672 1098.57 257.984L1095.17 266.988H1104.51ZM1101.5 241.207C1101.83 241.793 1102.28 242.457 1102.87 243.199C1103.46 243.928 1104.07 244.645 1104.73 245.348C1105.38 246.051 1105.96 246.656 1106.46 247.164V247.594H1104.16C1103.46 247.138 1102.73 246.578 1101.99 245.914C1101.25 245.25 1100.53 244.56 1099.82 243.844C1099.12 244.56 1098.4 245.25 1097.67 245.914C1096.96 246.565 1096.25 247.125 1095.55 247.594H1093.32V247.164C1093.81 246.643 1094.37 246.031 1095 245.328C1095.64 244.625 1096.24 243.909 1096.82 243.18C1097.4 242.451 1097.86 241.793 1098.2 241.207H1101.5ZM1138.75 279H1134.92L1119.35 255.016H1119.2C1119.24 255.654 1119.28 256.383 1119.34 257.203C1119.39 258.01 1119.43 258.876 1119.45 259.801C1119.49 260.712 1119.51 261.643 1119.51 262.594V279H1116.42V250.445H1120.23L1135.74 274.352H1135.88C1135.85 273.896 1135.82 273.251 1135.78 272.418C1135.74 271.572 1135.7 270.667 1135.66 269.703C1135.64 268.727 1135.62 267.822 1135.62 266.988V250.445H1138.75V279ZM1146.54 279V250.445H1149.86V279H1146.54ZM1169.92 252.965C1168.35 252.965 1166.93 253.238 1165.66 253.785C1164.41 254.319 1163.35 255.1 1162.46 256.129C1161.59 257.145 1160.92 258.375 1160.45 259.82C1159.98 261.266 1159.75 262.893 1159.75 264.703C1159.75 267.099 1160.12 269.182 1160.86 270.953C1161.61 272.711 1162.73 274.072 1164.22 275.035C1165.72 275.999 1167.58 276.48 1169.82 276.48C1171.1 276.48 1172.3 276.376 1173.42 276.168C1174.55 275.947 1175.65 275.673 1176.72 275.348V278.238C1175.68 278.629 1174.58 278.915 1173.44 279.098C1172.29 279.293 1170.93 279.391 1169.35 279.391C1166.45 279.391 1164.02 278.792 1162.07 277.594C1160.13 276.383 1158.67 274.677 1157.69 272.477C1156.73 270.276 1156.25 267.678 1156.25 264.684C1156.25 262.522 1156.55 260.549 1157.15 258.766C1157.76 256.969 1158.64 255.419 1159.8 254.117C1160.98 252.815 1162.41 251.812 1164.1 251.109C1165.81 250.393 1167.76 250.035 1169.96 250.035C1171.41 250.035 1172.8 250.178 1174.14 250.465C1175.48 250.751 1176.69 251.161 1177.77 251.695L1176.44 254.508C1175.53 254.091 1174.53 253.733 1173.44 253.434C1172.36 253.121 1171.18 252.965 1169.92 252.965ZM1200.82 279L1197.3 269.938H1185.86L1182.36 279H1179L1190.17 250.328H1193.16L1204.26 279H1200.82ZM1196.31 266.988L1192.97 257.984C1192.89 257.75 1192.76 257.366 1192.58 256.832C1192.41 256.298 1192.23 255.745 1192.05 255.172C1191.87 254.599 1191.72 254.137 1191.6 253.785C1191.47 254.319 1191.33 254.853 1191.17 255.387C1191.03 255.908 1190.88 256.396 1190.74 256.852C1190.6 257.294 1190.47 257.672 1190.37 257.984L1186.97 266.988H1196.31ZM1234.51 279H1218.61V250.445H1234.51V253.375H1221.93V262.613H1233.79V265.504H1221.93V276.07H1234.51V279ZM1267.34 271.402C1267.34 273.095 1266.92 274.54 1266.07 275.738C1265.24 276.923 1264.07 277.828 1262.56 278.453C1261.05 279.078 1259.27 279.391 1257.23 279.391C1256.14 279.391 1255.12 279.339 1254.16 279.234C1253.2 279.13 1252.31 278.98 1251.5 278.785C1250.7 278.59 1249.99 278.349 1249.37 278.062V274.879C1250.35 275.283 1251.54 275.66 1252.95 276.012C1254.35 276.35 1255.83 276.52 1257.36 276.52C1258.79 276.52 1260.01 276.331 1261 275.953C1261.98 275.562 1262.73 275.009 1263.24 274.293C1263.76 273.564 1264.02 272.691 1264.02 271.676C1264.02 270.699 1263.81 269.885 1263.38 269.234C1262.95 268.57 1262.23 267.971 1261.23 267.438C1260.24 266.891 1258.89 266.311 1257.17 265.699C1255.96 265.27 1254.89 264.801 1253.96 264.293C1253.04 263.772 1252.26 263.186 1251.64 262.535C1251.01 261.884 1250.54 261.129 1250.21 260.27C1249.9 259.41 1249.75 258.427 1249.75 257.32C1249.75 255.797 1250.13 254.495 1250.9 253.414C1251.68 252.32 1252.75 251.487 1254.12 250.914C1255.5 250.328 1257.08 250.035 1258.87 250.035C1260.39 250.035 1261.8 250.178 1263.09 250.465C1264.39 250.751 1265.58 251.135 1266.66 251.617L1265.62 254.469C1264.6 254.039 1263.5 253.681 1262.34 253.395C1261.2 253.108 1260.01 252.965 1258.79 252.965C1257.56 252.965 1256.53 253.147 1255.68 253.512C1254.85 253.863 1254.21 254.365 1253.77 255.016C1253.33 255.667 1253.1 256.441 1253.1 257.34C1253.1 258.342 1253.31 259.176 1253.73 259.84C1254.16 260.504 1254.84 261.096 1255.76 261.617C1256.7 262.125 1257.94 262.659 1259.47 263.219C1261.15 263.831 1262.58 264.482 1263.75 265.172C1264.92 265.849 1265.81 266.682 1266.42 267.672C1267.04 268.648 1267.34 269.892 1267.34 271.402ZM1294.78 250.445V268.922C1294.78 270.94 1294.37 272.737 1293.55 274.312C1292.75 275.888 1291.52 277.132 1289.88 278.043C1288.24 278.941 1286.18 279.391 1283.71 279.391C1280.18 279.391 1277.49 278.434 1275.64 276.52C1273.81 274.605 1272.89 272.047 1272.89 268.844V250.445H1276.23V268.941C1276.23 271.363 1276.87 273.232 1278.14 274.547C1279.43 275.862 1281.35 276.52 1283.91 276.52C1285.65 276.52 1287.08 276.207 1288.18 275.582C1289.3 274.944 1290.13 274.059 1290.66 272.926C1291.21 271.78 1291.48 270.458 1291.48 268.961V250.445H1294.78ZM1318.48 271.402C1318.48 273.095 1318.05 274.54 1317.21 275.738C1316.37 276.923 1315.2 277.828 1313.69 278.453C1312.18 279.078 1310.4 279.391 1308.36 279.391C1307.28 279.391 1306.26 279.339 1305.29 279.234C1304.33 279.13 1303.44 278.98 1302.64 278.785C1301.83 278.59 1301.12 278.349 1300.51 278.062V274.879C1301.48 275.283 1302.67 275.66 1304.08 276.012C1305.49 276.35 1306.96 276.52 1308.5 276.52C1309.93 276.52 1311.14 276.331 1312.13 275.953C1313.12 275.562 1313.87 275.009 1314.37 274.293C1314.89 273.564 1315.16 272.691 1315.16 271.676C1315.16 270.699 1314.94 269.885 1314.51 269.234C1314.08 268.57 1313.37 267.971 1312.36 267.438C1311.37 266.891 1310.02 266.311 1308.3 265.699C1307.09 265.27 1306.02 264.801 1305.1 264.293C1304.17 263.772 1303.4 263.186 1302.77 262.535C1302.15 261.884 1301.67 261.129 1301.35 260.27C1301.03 259.41 1300.88 258.427 1300.88 257.32C1300.88 255.797 1301.26 254.495 1302.03 253.414C1302.81 252.32 1303.89 251.487 1305.25 250.914C1306.63 250.328 1308.22 250.035 1310 250.035C1311.52 250.035 1312.93 250.178 1314.22 250.465C1315.52 250.751 1316.71 251.135 1317.79 251.617L1316.76 254.469C1315.73 254.039 1314.63 253.681 1313.48 253.395C1312.33 253.108 1311.14 252.965 1309.92 252.965C1308.7 252.965 1307.66 253.147 1306.82 253.512C1305.98 253.863 1305.34 254.365 1304.9 255.016C1304.46 255.667 1304.24 256.441 1304.24 257.34C1304.24 258.342 1304.45 259.176 1304.86 259.84C1305.29 260.504 1305.97 261.096 1306.89 261.617C1307.83 262.125 1309.07 262.659 1310.6 263.219C1312.28 263.831 1313.71 264.482 1314.88 265.172C1316.05 265.849 1316.95 266.682 1317.56 267.672C1318.17 268.648 1318.48 269.892 1318.48 271.402ZM1333.09 279H1329.75V253.375H1320.76V250.445H1342.03V253.375H1333.09V279ZM1362.25 279H1346.35V250.445H1362.25V253.375H1349.67V262.613H1361.52V265.504H1349.67V276.07H1362.25V279ZM1390.9 279H1387.07L1371.5 255.016H1371.35C1371.39 255.654 1371.43 256.383 1371.48 257.203C1371.54 258.01 1371.57 258.876 1371.6 259.801C1371.64 260.712 1371.66 261.643 1371.66 262.594V279H1368.57V250.445H1372.38L1387.89 274.352H1388.03C1388 273.896 1387.97 273.251 1387.93 272.418C1387.89 271.572 1387.85 270.667 1387.81 269.703C1387.79 268.727 1387.77 267.822 1387.77 266.988V250.445H1390.9V279ZM1407.46 279H1404.12V253.375H1395.14V250.445H1416.41V253.375H1407.46V279ZM1438.63 279L1435.12 269.938H1423.67L1420.17 279H1416.82L1427.99 250.328H1430.98L1442.07 279H1438.63ZM1434.12 266.988L1430.78 257.984C1430.7 257.75 1430.57 257.366 1430.39 256.832C1430.22 256.298 1430.04 255.745 1429.86 255.172C1429.68 254.599 1429.53 254.137 1429.41 253.785C1429.28 254.319 1429.14 254.853 1428.98 255.387C1428.84 255.908 1428.7 256.396 1428.55 256.852C1428.41 257.294 1428.29 257.672 1428.18 257.984L1424.78 266.988H1434.12ZM1435.08 241.188V241.578C1434.82 241.956 1434.46 242.411 1434 242.945C1433.56 243.466 1433.07 244.02 1432.52 244.605C1431.97 245.178 1431.42 245.725 1430.86 246.246C1430.31 246.767 1429.8 247.216 1429.34 247.594H1427.17V247.125C1427.58 246.63 1428.04 246.038 1428.53 245.348C1429.03 244.645 1429.51 243.928 1429.98 243.199C1430.45 242.457 1430.84 241.786 1431.15 241.188H1435.08ZM1465.98 250.445L1455.72 279H1452.38L1442.13 250.445H1445.6L1452.28 269.254C1452.56 270.009 1452.8 270.732 1453.01 271.422C1453.23 272.112 1453.42 272.776 1453.59 273.414C1453.76 274.052 1453.91 274.671 1454.04 275.27C1454.17 274.671 1454.32 274.052 1454.49 273.414C1454.66 272.763 1454.86 272.092 1455.08 271.402C1455.3 270.699 1455.55 269.964 1455.82 269.195L1462.46 250.445H1465.98ZM1485.8 279H1469.9V250.445H1485.8V253.375H1473.22V262.613H1485.08V265.504H1473.22V276.07H1485.8V279ZM1492.13 279V250.445H1495.45V276.031H1508.12V279H1492.13Z" fill="white"/>
<path d="M1099 474H1244.33" stroke="white" stroke-width="4" stroke-linecap="round"/>
<defs>
<filter id="filter0_b_191_2" x="683" y="-10" width="1025" height="578" filterUnits="userSpaceOnUse" color-interpolation-filters="sRGB">
<feFlood flood-opacity="0" result="BackgroundImageFix"/>
<feGaussianBlur in="BackgroundImage" stdDeviation="5"/>
<feComposite in2="SourceAlpha" operator="in" result="effect1_backgroundBlur_191_2"/>
<feBlend mode="normal" in="SourceGraphic" in2="effect1_backgroundBlur_191_2" result="shape"/>
</filter>
</defs>
</svg>
