<svg width="340" height="39" viewBox="0 0 340 39" fill="none" xmlns="http://www.w3.org/2000/svg">
<path d="M0 6.00001C0 3.23858 2.23858 1 5 1H335C337.761 1 340 3.23858 340 6V31.9944C340 34.7559 337.761 36.9944 335 36.9944H5C2.23858 36.9944 0 34.7559 0 31.9944V6.00001Z" fill="black" fill-opacity="0.45"/>
<path d="M142.367 29.2344C141.5 29.2344 140.707 29.0156 139.988 28.5781C139.277 28.1406 138.711 27.5547 138.289 26.8203C137.875 26.0781 137.668 25.2539 137.668 24.3477L137.691 16.8594C137.691 15.9688 137.895 15.1641 138.301 14.4453C138.707 13.7188 139.266 13.1367 139.977 12.6992C140.695 12.2539 141.492 12.0312 142.367 12.0312C143.258 12.0312 144.051 12.2461 144.746 12.6758C145.449 13.1055 146.008 13.6875 146.422 14.4219C146.844 15.1484 147.055 15.9609 147.055 16.8594V17.9609C147.055 18.0234 147.023 18.0547 146.961 18.0547H144.266C144.203 18.0547 144.172 18.0234 144.172 17.9609V16.8594C144.172 16.3281 144 15.8711 143.656 15.4883C143.312 15.1055 142.883 14.9141 142.367 14.9141C141.797 14.9141 141.359 15.1094 141.055 15.5C140.75 15.8906 140.598 16.3438 140.598 16.8594V24.3477C140.598 24.9336 140.77 25.4141 141.113 25.7891C141.457 26.1562 141.875 26.3398 142.367 26.3398C142.883 26.3398 143.312 26.1367 143.656 25.7305C144 25.3164 144.172 24.8555 144.172 24.3477V23.2344C144.172 23.1719 144.203 23.1406 144.266 23.1406H146.984C147.047 23.1406 147.078 23.1719 147.078 23.2344V24.3477C147.078 25.2461 146.867 26.0664 146.445 26.8086C146.016 27.543 145.449 28.1328 144.746 28.5781C144.043 29.0156 143.25 29.2344 142.367 29.2344ZM151.637 29H148.918C148.855 29 148.824 28.9609 148.824 28.8828L148.848 12.3945C148.848 12.332 148.887 12.3008 148.965 12.3008H151.637C151.715 12.3008 151.754 12.332 151.754 12.3945L151.73 18.9219H155.328V12.3945C155.328 12.332 155.359 12.3008 155.422 12.3008H158.094C158.172 12.3008 158.211 12.332 158.211 12.3945L158.258 28.8828C158.258 28.9609 158.219 29 158.141 29H155.445C155.367 29 155.328 28.9609 155.328 28.8828V21.8281H151.73V28.8828C151.73 28.9609 151.699 29 151.637 29ZM164.656 29.2344C163.805 29.2344 163.02 29.0156 162.301 28.5781C161.59 28.1406 161.016 27.5586 160.578 26.832C160.148 26.0977 159.934 25.293 159.934 24.418L159.957 16.8125C159.957 15.9219 160.172 15.1211 160.602 14.4102C161.023 13.6914 161.594 13.1172 162.312 12.6875C163.031 12.25 163.812 12.0312 164.656 12.0312C165.531 12.0312 166.316 12.2461 167.012 12.6758C167.715 13.1055 168.277 13.6836 168.699 14.4102C169.129 15.1289 169.344 15.9297 169.344 16.8125L169.367 24.418C169.367 25.293 169.156 26.0938 168.734 26.8203C168.305 27.5547 167.734 28.1406 167.023 28.5781C166.312 29.0156 165.523 29.2344 164.656 29.2344ZM164.656 26.3398C165.141 26.3398 165.562 26.1445 165.922 25.7539C166.281 25.3555 166.461 24.9102 166.461 24.418L166.438 16.8125C166.438 16.2812 166.27 15.832 165.934 15.4648C165.598 15.0977 165.172 14.9141 164.656 14.9141C164.164 14.9141 163.742 15.0938 163.391 15.4531C163.039 15.8125 162.863 16.2656 162.863 16.8125V24.418C162.863 24.9414 163.039 25.3945 163.391 25.7773C163.742 26.1523 164.164 26.3398 164.656 26.3398ZM173.996 29H171.301C171.223 29 171.184 28.9609 171.184 28.8828L171.23 12.3945C171.23 12.332 171.262 12.3008 171.324 12.3008H175.941C177.41 12.3008 178.57 12.75 179.422 13.6484C180.281 14.5391 180.711 15.7539 180.711 17.293C180.711 18.418 180.488 19.3984 180.043 20.2344C179.59 21.0625 179.004 21.7031 178.285 22.1562C177.566 22.6094 176.785 22.8359 175.941 22.8359H174.113V28.8828C174.113 28.9609 174.074 29 173.996 29ZM175.941 15.1484L174.113 15.1719V19.9297H175.941C176.449 19.9297 176.891 19.6875 177.266 19.2031C177.641 18.7109 177.828 18.0742 177.828 17.293C177.828 16.668 177.66 16.1562 177.324 15.7578C176.988 15.3516 176.527 15.1484 175.941 15.1484ZM185.152 29H182.457C182.379 29 182.34 28.9609 182.34 28.8828L182.387 12.3945C182.387 12.332 182.418 12.3008 182.48 12.3008H187.098C188.566 12.3008 189.727 12.75 190.578 13.6484C191.438 14.5391 191.867 15.7539 191.867 17.293C191.867 18.418 191.645 19.3984 191.199 20.2344C190.746 21.0625 190.16 21.7031 189.441 22.1562C188.723 22.6094 187.941 22.8359 187.098 22.8359H185.27V28.8828C185.27 28.9609 185.23 29 185.152 29ZM187.098 15.1484L185.27 15.1719V19.9297H187.098C187.605 19.9297 188.047 19.6875 188.422 19.2031C188.797 18.7109 188.984 18.0742 188.984 17.293C188.984 16.668 188.816 16.1562 188.48 15.7578C188.145 15.3516 187.684 15.1484 187.098 15.1484ZM197.574 29.2344C196.723 29.2344 195.938 29.0156 195.219 28.5781C194.508 28.1406 193.938 27.5586 193.508 26.832C193.086 26.0977 192.875 25.293 192.875 24.418V23.3164C192.875 23.2305 192.914 23.1875 192.992 23.1875H195.688C195.75 23.1875 195.781 23.2305 195.781 23.3164V24.418C195.781 24.9414 195.957 25.3945 196.309 25.7773C196.66 26.1523 197.082 26.3398 197.574 26.3398C198.074 26.3398 198.5 26.1484 198.852 25.7656C199.203 25.375 199.379 24.9258 199.379 24.418C199.379 23.832 198.996 23.3203 198.23 22.8828C198.105 22.8047 197.941 22.7109 197.738 22.6016C197.543 22.4844 197.309 22.3516 197.035 22.2031C196.762 22.0547 196.496 21.9102 196.238 21.7695C195.98 21.6211 195.73 21.4805 195.488 21.3477C194.613 20.832 193.961 20.1875 193.531 19.4141C193.109 18.6328 192.898 17.7578 192.898 16.7891C192.898 15.8984 193.117 15.0938 193.555 14.375C193.992 13.6641 194.562 13.1016 195.266 12.6875C195.977 12.2656 196.746 12.0547 197.574 12.0547C198.426 12.0547 199.207 12.2656 199.918 12.6875C200.629 13.1172 201.195 13.6875 201.617 14.3984C202.047 15.1094 202.262 15.9062 202.262 16.7891V18.7578C202.262 18.8203 202.23 18.8516 202.168 18.8516H199.473C199.41 18.8516 199.379 18.8203 199.379 18.7578L199.355 16.7891C199.355 16.2266 199.18 15.7695 198.828 15.418C198.477 15.0664 198.059 14.8906 197.574 14.8906C197.082 14.8906 196.66 15.0781 196.309 15.4531C195.957 15.8281 195.781 16.2734 195.781 16.7891C195.781 17.3125 195.891 17.75 196.109 18.1016C196.336 18.4531 196.746 18.7891 197.34 19.1094C197.402 19.1406 197.547 19.2188 197.773 19.3438C198 19.4688 198.25 19.6094 198.523 19.7656C198.805 19.9141 199.059 20.0508 199.285 20.1758C199.512 20.293 199.648 20.3633 199.695 20.3867C200.492 20.832 201.121 21.3789 201.582 22.0273C202.051 22.6758 202.285 23.4727 202.285 24.418C202.285 25.332 202.074 26.1523 201.652 26.8789C201.223 27.6055 200.652 28.1797 199.941 28.6016C199.23 29.0234 198.441 29.2344 197.574 29.2344Z" fill="white"/>
</svg>
