<svg width="340" height="36" viewBox="0 0 340 36" fill="none" xmlns="http://www.w3.org/2000/svg">
<path d="M0 5.00001C0 2.23858 2.23858 0 5 0H335C337.761 0 340 2.23858 340 5V30.9944C340 33.7559 337.761 35.9944 335 35.9944H5C2.23858 35.9944 0 33.7559 0 30.9944V5.00001Z" fill="black" fill-opacity="0.45"/>
<path d="M129.324 29H126.629C126.551 29 126.512 28.9609 126.512 28.8828L126.559 12.3945C126.559 12.332 126.59 12.3008 126.652 12.3008H134.34C134.418 12.3008 134.457 12.332 134.457 12.3945V15.1016C134.457 15.1641 134.426 15.1953 134.363 15.1953H129.441V18.9219H134.363C134.426 18.9219 134.457 18.9609 134.457 19.0391L134.48 21.7578C134.48 21.8203 134.441 21.8516 134.363 21.8516H129.441V28.8828C129.441 28.9609 129.402 29 129.324 29ZM144.465 29H136.707C136.645 29 136.613 28.9609 136.613 28.8828L136.637 12.3945C136.637 12.332 136.668 12.3008 136.73 12.3008H144.441C144.504 12.3008 144.535 12.3398 144.535 12.418V15.1016C144.535 15.1641 144.504 15.1953 144.441 15.1953H139.52V18.9453H144.441C144.504 18.9453 144.535 18.9766 144.535 19.0391L144.559 21.7578C144.559 21.8203 144.527 21.8516 144.465 21.8516H139.52V26.0469H144.465C144.527 26.0469 144.559 26.0859 144.559 26.1641V28.9062C144.559 28.9688 144.527 29 144.465 29ZM149.527 29H146.809C146.73 29 146.691 28.9609 146.691 28.8828L146.715 12.3945C146.715 12.332 146.746 12.3008 146.809 12.3008H149.504C149.566 12.3008 149.598 12.332 149.598 12.3945L149.621 28.8828C149.621 28.9609 149.59 29 149.527 29ZM155.668 29.2344C154.785 29.2344 153.984 29.0234 153.266 28.6016C152.555 28.1797 151.992 27.5977 151.578 26.8555C151.172 26.1055 150.969 25.2695 150.969 24.3477V23.2344C150.969 23.1719 151 23.1406 151.062 23.1406H153.781C153.844 23.1406 153.875 23.1836 153.875 23.2695V24.3477C153.875 24.9336 154.043 25.4141 154.379 25.7891C154.715 26.1562 155.145 26.3398 155.668 26.3398C156.152 26.3398 156.57 26.1406 156.922 25.7422C157.273 25.3359 157.449 24.8711 157.449 24.3477V12.418C157.449 12.3555 157.48 12.3242 157.543 12.3242H160.238C160.301 12.3242 160.332 12.3633 160.332 12.4414L160.355 24.3477C160.355 25.2227 160.145 26.0312 159.723 26.7734C159.293 27.5234 158.727 28.1211 158.023 28.5664C157.32 29.0117 156.535 29.2344 155.668 29.2344ZM166.602 29.2344C165.75 29.2344 164.965 29.0156 164.246 28.5781C163.535 28.1406 162.961 27.5586 162.523 26.832C162.094 26.0977 161.879 25.293 161.879 24.418L161.902 16.8125C161.902 15.9219 162.117 15.1211 162.547 14.4102C162.969 13.6914 163.539 13.1172 164.258 12.6875C164.977 12.25 165.758 12.0312 166.602 12.0312C167.477 12.0312 168.262 12.2461 168.957 12.6758C169.66 13.1055 170.223 13.6836 170.645 14.4102C171.074 15.1289 171.289 15.9297 171.289 16.8125L171.312 24.418C171.312 25.293 171.102 26.0938 170.68 26.8203C170.25 27.5547 169.68 28.1406 168.969 28.5781C168.258 29.0156 167.469 29.2344 166.602 29.2344ZM166.602 26.3398C167.086 26.3398 167.508 26.1445 167.867 25.7539C168.227 25.3555 168.406 24.9102 168.406 24.418L168.383 16.8125C168.383 16.2812 168.215 15.832 167.879 15.4648C167.543 15.0977 167.117 14.9141 166.602 14.9141C166.109 14.9141 165.688 15.0938 165.336 15.4531C164.984 15.8125 164.809 16.2656 164.809 16.8125V24.418C164.809 24.9414 164.984 25.3945 165.336 25.7773C165.688 26.1523 166.109 26.3398 166.602 26.3398ZM172.32 28.8828L175.297 12.3945C175.312 12.332 175.352 12.3008 175.414 12.3008H178.895C178.957 12.3008 178.996 12.332 179.012 12.3945L181.871 28.8828C181.879 28.9609 181.848 29 181.777 29H179.117C179.039 29 178.996 28.9609 178.988 28.8828L178.73 27.125H175.461L175.203 28.8828C175.195 28.9609 175.156 29 175.086 29H172.414C172.352 29 172.32 28.9609 172.32 28.8828ZM177.02 17.8203L175.941 24.5586H178.25L177.266 17.8203L177.125 16.9297L177.02 17.8203ZM187.789 28.9766L183.488 29C183.41 29 183.371 28.9609 183.371 28.8828L183.418 12.3945C183.418 12.332 183.449 12.3008 183.512 12.3008L188 12.2773C188.891 12.2539 189.695 12.457 190.414 12.8867C191.141 13.3164 191.719 13.8984 192.148 14.6328C192.586 15.3594 192.805 16.1641 192.805 17.0469V23.9375C192.805 24.8594 192.582 25.7031 192.137 26.4688C191.684 27.2266 191.082 27.832 190.332 28.2852C189.582 28.7305 188.734 28.9609 187.789 28.9766ZM188 15.1484L186.324 15.1719L186.301 26.0469H187.789C188.383 26.0469 188.883 25.8398 189.289 25.4258C189.695 25.0117 189.898 24.5156 189.898 23.9375V17.0234C189.898 16.5156 189.711 16.0742 189.336 15.6992C188.961 15.3164 188.516 15.1328 188 15.1484ZM193.883 28.8828L196.859 12.3945C196.875 12.332 196.914 12.3008 196.977 12.3008H200.457C200.52 12.3008 200.559 12.332 200.574 12.3945L203.434 28.8828C203.441 28.9609 203.41 29 203.34 29H200.68C200.602 29 200.559 28.9609 200.551 28.8828L200.293 27.125H197.023L196.766 28.8828C196.758 28.9609 196.719 29 196.648 29H193.977C193.914 29 193.883 28.9609 193.883 28.8828ZM198.582 17.8203L197.504 24.5586H199.812L198.828 17.8203L198.688 16.9297L198.582 17.8203ZM209.012 29.2344C208.16 29.2344 207.375 29.0156 206.656 28.5781C205.945 28.1406 205.375 27.5586 204.945 26.832C204.523 26.0977 204.312 25.293 204.312 24.418V23.3164C204.312 23.2305 204.352 23.1875 204.43 23.1875H207.125C207.188 23.1875 207.219 23.2305 207.219 23.3164V24.418C207.219 24.9414 207.395 25.3945 207.746 25.7773C208.098 26.1523 208.52 26.3398 209.012 26.3398C209.512 26.3398 209.938 26.1484 210.289 25.7656C210.641 25.375 210.816 24.9258 210.816 24.418C210.816 23.832 210.434 23.3203 209.668 22.8828C209.543 22.8047 209.379 22.7109 209.176 22.6016C208.98 22.4844 208.746 22.3516 208.473 22.2031C208.199 22.0547 207.934 21.9102 207.676 21.7695C207.418 21.6211 207.168 21.4805 206.926 21.3477C206.051 20.832 205.398 20.1875 204.969 19.4141C204.547 18.6328 204.336 17.7578 204.336 16.7891C204.336 15.8984 204.555 15.0938 204.992 14.375C205.43 13.6641 206 13.1016 206.703 12.6875C207.414 12.2656 208.184 12.0547 209.012 12.0547C209.863 12.0547 210.645 12.2656 211.355 12.6875C212.066 13.1172 212.633 13.6875 213.055 14.3984C213.484 15.1094 213.699 15.9062 213.699 16.7891V18.7578C213.699 18.8203 213.668 18.8516 213.605 18.8516H210.91C210.848 18.8516 210.816 18.8203 210.816 18.7578L210.793 16.7891C210.793 16.2266 210.617 15.7695 210.266 15.418C209.914 15.0664 209.496 14.8906 209.012 14.8906C208.52 14.8906 208.098 15.0781 207.746 15.4531C207.395 15.8281 207.219 16.2734 207.219 16.7891C207.219 17.3125 207.328 17.75 207.547 18.1016C207.773 18.4531 208.184 18.7891 208.777 19.1094C208.84 19.1406 208.984 19.2188 209.211 19.3438C209.438 19.4688 209.688 19.6094 209.961 19.7656C210.242 19.9141 210.496 20.0508 210.723 20.1758C210.949 20.293 211.086 20.3633 211.133 20.3867C211.93 20.832 212.559 21.3789 213.02 22.0273C213.488 22.6758 213.723 23.4727 213.723 24.418C213.723 25.332 213.512 26.1523 213.09 26.8789C212.66 27.6055 212.09 28.1797 211.379 28.6016C210.668 29.0234 209.879 29.2344 209.012 29.2344Z" fill="white"/>
</svg>
