<?xml version="1.0" standalone="no"?>
<!DOCTYPE svg PUBLIC "-//W3C//DTD SVG 20010904//EN"
 "http://www.w3.org/TR/2001/REC-SVG-20010904/DTD/svg10.dtd">
<svg version="1.0" xmlns="http://www.w3.org/2000/svg"
 width="501.000000pt" height="158.000000pt" viewBox="0 0 501.000000 158.000000"
 preserveAspectRatio="xMidYMid meet">

<g transform="translate(0.000000,158.000000) scale(0.100000,-0.100000)"
fill="#000000" stroke="none">
<path d="M2513 1313 c-48 -61 -119 -211 -138 -293 -21 -93 -22 -255 -1 -331
16 -65 79 -205 102 -230 15 -16 14 -20 -5 -48 -12 -17 -42 -45 -66 -62 -48
-35 -49 -37 -36 -57 7 -11 18 -7 51 17 24 17 51 44 60 59 17 27 70 79 55 53
-5 -10 -4 -12 4 -7 6 4 21 26 32 49 12 23 25 44 29 47 17 12 79 162 93 227 15
67 14 100 -3 113 -4 3 -10 37 -13 75 -5 68 -5 69 8 30 9 -28 13 -33 14 -18 2
48 -101 310 -128 327 -6 4 -9 11 -6 16 3 4 -1 22 -9 40 l-13 32 -30 -39z m35
-200 c15 -26 1 -63 -23 -63 -20 0 -29 43 -16 68 6 12 12 40 12 64 l2 43 6 -45
c4 -25 12 -55 19 -67z m-52 -54 c14 -13 24 -34 24 -51 0 -34 -6 -35 -37 -6
-19 17 -23 31 -22 72 1 28 4 41 6 30 2 -12 15 -32 29 -45z m98 -274 c-2 -206
-7 -236 -43 -269 -21 -19 -21 -19 -21 12 0 23 8 36 30 52 17 12 30 26 30 32 0
7 -10 2 -23 -10 -32 -30 -37 -28 -37 13 0 25 6 39 24 50 13 9 27 24 31 33 4
12 0 10 -18 -6 -32 -30 -37 -28 -37 13 0 25 6 39 24 50 13 9 27 23 30 31 4 11
-3 8 -22 -6 l-27 -22 -3 32 c-3 26 3 39 27 61 38 35 41 48 4 19 l-28 -22 -3
32 c-3 26 3 39 27 61 17 15 31 35 31 44 0 12 -7 8 -25 -12 -19 -21 -27 -25
-33 -15 -14 21 -2 60 24 77 15 9 25 26 25 43 5 93 15 -127 13 -293z m-103 186
c44 -44 38 -96 -8 -66 -31 21 -29 13 7 -23 45 -45 39 -97 -7 -67 -31 21 -29
13 7 -23 45 -45 39 -97 -7 -67 -31 21 -29 13 7 -23 30 -30 39 -65 20 -77 -5
-3 -21 5 -35 19 -16 16 -25 20 -25 11 0 -8 13 -22 29 -31 27 -16 49 -59 37
-71 -11 -12 -48 11 -58 35 -6 16 -11 121 -13 247 -1 146 1 211 7 192 6 -15 23
-40 39 -56z m27 -463 c5 -28 -37 -9 -54 25 l-16 30 33 -20 c19 -10 35 -26 37
-35z"/>
</g>
</svg>
